<svg width="83" height="88" viewBox="0 0 83 88" fill="none" xmlns="http://www.w3.org/2000/svg">
<path d="M82.5331 77.8626L75.2049 16.4885H61.6934C60.0904 7.09924 51.6171 0 41.3118 0C31.0064 0 22.5331 7.09924 20.9301 16.4885H7.41864L0.0903997 77.8626C-0.367616 81.2977 1.00643 83.3588 2.15147 84.7328C3.29651 85.8779 5.35757 87.4809 9.2507 87.4809H73.3728C76.3499 87.4809 78.869 86.5649 80.4721 84.5038C82.0751 82.9008 82.7622 80.3817 82.5331 77.8626ZM41.3118 9.16031C46.3499 9.16031 50.7011 12.3664 52.0751 16.4885H30.3194C31.9225 12.1374 36.2736 9.16031 41.3118 9.16031ZM9.2507 78.3206L15.6629 25.6489H20.7011V32.5191C20.7011 35.0382 22.7622 37.0992 25.2812 37.0992C27.8003 37.0992 29.8614 35.0382 29.8614 32.5191V25.6489H52.7622V32.5191C52.7622 35.0382 54.8232 37.0992 57.3423 37.0992C59.8614 37.0992 61.9225 35.0382 61.9225 32.5191V25.6489H66.9606L73.3728 78.3206H9.2507Z" fill="#334155"/>
</svg>
