<svg width="128" height="21" viewBox="0 0 128 21" fill="none" xmlns="http://www.w3.org/2000/svg">
<path d="M0 0H72V21H0V0Z" fill="#EB0000"/>
<path d="M2.264 14.567H3.083V16.257H11V17.193H3.083V18.883H2.264V14.567Z" fill="white"/>
<path d="M2.264 9.85308V8.91708H11V9.85308H7.126V12.6351H11V13.5581H2.264V12.6351H6.307V9.85308H2.264Z" fill="white"/>
<path d="M2.264 7.12155V3.33855H3.083V6.19855H6.19V3.70255H7.009V6.19855H10.181V3.33855H11V7.12155H2.264Z" fill="white"/>
<path d="M19.08 6.496C19.08 5.824 18.736 5.488 18.048 5.488H16.704V11.08H18.048C18.736 11.08 19.08 10.744 19.08 10.072V6.496ZM13.08 2.368H18.504C19.8 2.368 20.816 2.68 21.552 3.304C22.304 3.928 22.68 4.848 22.68 6.064V10.504C22.68 11.72 22.304 12.64 21.552 13.264C20.816 13.888 19.8 14.2 18.504 14.2H16.704V19H13.08V2.368Z" fill="white"/>
<path d="M31.3134 2.368H34.9614V19H31.3134V12.424H28.0014V19H24.3534V2.368H28.0014V9.208H31.3134V2.368Z" fill="white"/>
<path d="M43.3429 6.616C43.3429 5.816 42.8629 5.416 41.9029 5.416C40.9589 5.416 40.4869 5.816 40.4869 6.616V14.752C40.4869 15.552 40.9589 15.952 41.9029 15.952C42.8629 15.952 43.3429 15.552 43.3429 14.752V6.616ZM36.8869 6.424C36.8869 5.112 37.3109 4.072 38.1589 3.304C39.0069 2.52 40.2549 2.128 41.9029 2.128C43.5509 2.128 44.7989 2.52 45.6469 3.304C46.5109 4.072 46.9429 5.112 46.9429 6.424V14.944C46.9429 16.256 46.5109 17.304 45.6469 18.088C44.7989 18.856 43.5509 19.24 41.9029 19.24C40.2549 19.24 39.0069 18.856 38.1589 18.088C37.3109 17.304 36.8869 16.256 36.8869 14.944V6.424Z" fill="white"/>
<path d="M55.9251 2.368H59.4771V19H56.0211C53.6531 12.952 52.2851 9.304 51.9171 8.056C52.2531 9.32 52.4211 11.496 52.4211 14.584V19H48.8691V2.368H52.4211L54.6051 7.936C55.5331 10.32 56.1571 12.128 56.4771 13.36C56.1091 11.808 55.9251 9.536 55.9251 6.544V2.368Z" fill="white"/>
<path d="M61.6425 2.368H70.0665V5.488H65.2425V9.016H69.4185V12.136H65.2425V15.88H70.0665V19H61.6425V2.368Z" fill="white"/>
<path d="M75.624 6.184C75.624 5.048 75.992 4.168 76.728 3.544C77.48 2.92 78.544 2.608 79.92 2.608C81.296 2.608 82.416 2.752 83.28 3.04V5.2C82.416 4.864 81.368 4.696 80.136 4.696C78.648 4.696 77.904 5.248 77.904 6.352V7.288C77.904 7.8 78 8.208 78.192 8.512C78.4 8.8 78.76 9.088 79.272 9.376L82.056 10.936C83.352 11.64 84 12.704 84 14.128V15.472C84 16.64 83.592 17.544 82.776 18.184C81.96 18.808 80.808 19.12 79.32 19.12C77.848 19.12 76.664 18.952 75.768 18.616V16.456C76.824 16.84 77.936 17.032 79.104 17.032C80.848 17.032 81.72 16.44 81.72 15.256V14.44C81.72 13.96 81.632 13.592 81.456 13.336C81.28 13.064 80.952 12.8 80.472 12.544L77.76 11.056C76.336 10.288 75.624 9.144 75.624 7.624V6.184Z" fill="white"/>
<path d="M93.0317 2.728H95.3357V19H93.0317V12.016H88.4477V19H86.1677V2.728H88.4477V10H93.0317V2.728Z" fill="white"/>
<path d="M104.5 6.52C104.5 5.208 103.804 4.552 102.412 4.552C101.02 4.552 100.324 5.208 100.324 6.52V15.208C100.324 16.536 101.02 17.2 102.412 17.2C103.804 17.2 104.5 16.536 104.5 15.208V6.52ZM98.0683 6.448C98.0683 5.248 98.4283 4.288 99.1483 3.568C99.8843 2.848 100.964 2.488 102.388 2.488C103.828 2.488 104.916 2.856 105.652 3.592C106.388 4.312 106.756 5.264 106.756 6.448V15.304C106.756 16.488 106.388 17.44 105.652 18.16C104.916 18.88 103.836 19.24 102.412 19.24C100.988 19.24 99.9083 18.88 99.1723 18.16C98.4363 17.44 98.0683 16.488 98.0683 15.304V6.448Z" fill="white"/>
<path d="M115.56 6.568C115.56 5.336 114.92 4.72 113.64 4.72H111.744V11.704H113.64C114.92 11.704 115.56 11.08 115.56 9.832V6.568ZM109.488 2.728H113.856C115.136 2.728 116.112 3.048 116.784 3.688C117.472 4.328 117.816 5.224 117.816 6.376V10.024C117.816 11.176 117.472 12.072 116.784 12.712C116.112 13.352 115.136 13.672 113.856 13.672H111.744V19H109.488V2.728Z" fill="white"/>
<path d="M123.056 13.52V14.36H122.04V19H121.072V14.36H120.056V13.52H123.056Z" fill="white"/>
<path d="M127.757 13.52V19H126.829V16.728C126.829 16.1893 126.867 15.648 126.941 15.104L126.045 17.584H125.245L124.341 15.104C124.421 15.6 124.461 16.1413 124.461 16.728V19H123.541V13.52H124.565L125.645 16.56L126.725 13.52H127.757Z" fill="white"/>
</svg>
