<svg width="131" height="31" viewBox="0 0 131 31" fill="none" xmlns="http://www.w3.org/2000/svg">
<path d="M0 0H76V23H0V0Z" fill="#EB0000"/>
<path d="M2.92 15.885H3.865V17.835H13V18.915H3.865V20.865H2.92V15.885Z" fill="white"/>
<path d="M2.92 10.4459V9.36586H13V10.4459H8.53V13.6559H13V14.7209H2.92V13.6559H7.585V10.4459H2.92Z" fill="white"/>
<path d="M2.92 7.2941V2.9291H3.865V6.2291H7.45V3.3491H8.395V6.2291H12.055V2.9291H13V7.2941H2.92Z" fill="white"/>
<path d="M22.08 7.496C22.08 6.824 21.736 6.488 21.048 6.488H19.704V12.08H21.048C21.736 12.08 22.08 11.744 22.08 11.072V7.496ZM16.08 3.368H21.504C22.8 3.368 23.816 3.68 24.552 4.304C25.304 4.928 25.68 5.848 25.68 7.064V11.504C25.68 12.72 25.304 13.64 24.552 14.264C23.816 14.888 22.8 15.2 21.504 15.2H19.704V20H16.08V3.368Z" fill="white"/>
<path d="M34.3134 3.368H37.9614V20H34.3134V13.424H31.0014V20H27.3534V3.368H31.0014V10.208H34.3134V3.368Z" fill="white"/>
<path d="M46.3429 7.616C46.3429 6.816 45.8629 6.416 44.9029 6.416C43.9589 6.416 43.4869 6.816 43.4869 7.616V15.752C43.4869 16.552 43.9589 16.952 44.9029 16.952C45.8629 16.952 46.3429 16.552 46.3429 15.752V7.616ZM39.8869 7.424C39.8869 6.112 40.3109 5.072 41.1589 4.304C42.0069 3.52 43.2549 3.128 44.9029 3.128C46.5509 3.128 47.7989 3.52 48.6469 4.304C49.5109 5.072 49.9429 6.112 49.9429 7.424V15.944C49.9429 17.256 49.5109 18.304 48.6469 19.088C47.7989 19.856 46.5509 20.24 44.9029 20.24C43.2549 20.24 42.0069 19.856 41.1589 19.088C40.3109 18.304 39.8869 17.256 39.8869 15.944V7.424Z" fill="white"/>
<path d="M58.9251 3.368H62.4771V20H59.0211C56.6531 13.952 55.2851 10.304 54.9171 9.056C55.2531 10.32 55.4211 12.496 55.4211 15.584V20H51.8691V3.368H55.4211L57.6051 8.936C58.5331 11.32 59.1571 13.128 59.4771 14.36C59.1091 12.808 58.9251 10.536 58.9251 7.544V3.368Z" fill="white"/>
<path d="M64.6425 3.368H73.0665V6.488H68.2425V10.016H72.4185V13.136H68.2425V16.88H73.0665V20H64.6425V3.368Z" fill="white"/>
<path d="M78.624 7.184C78.624 6.048 78.992 5.168 79.728 4.544C80.48 3.92 81.544 3.608 82.92 3.608C84.296 3.608 85.416 3.752 86.28 4.04V6.2C85.416 5.864 84.368 5.696 83.136 5.696C81.648 5.696 80.904 6.248 80.904 7.352V8.288C80.904 8.8 81 9.208 81.192 9.512C81.4 9.8 81.76 10.088 82.272 10.376L85.056 11.936C86.352 12.64 87 13.704 87 15.128V16.472C87 17.64 86.592 18.544 85.776 19.184C84.96 19.808 83.808 20.12 82.32 20.12C80.848 20.12 79.664 19.952 78.768 19.616V17.456C79.824 17.84 80.936 18.032 82.104 18.032C83.848 18.032 84.72 17.44 84.72 16.256V15.44C84.72 14.96 84.632 14.592 84.456 14.336C84.28 14.064 83.952 13.8 83.472 13.544L80.76 12.056C79.336 11.288 78.624 10.144 78.624 8.624V7.184Z" fill="#0F172A"/>
<path d="M96.0317 3.728H98.3357V20H96.0317V13.016H91.4477V20H89.1677V3.728H91.4477V11H96.0317V3.728Z" fill="#0F172A"/>
<path d="M107.5 7.52C107.5 6.208 106.804 5.552 105.412 5.552C104.02 5.552 103.324 6.208 103.324 7.52V16.208C103.324 17.536 104.02 18.2 105.412 18.2C106.804 18.2 107.5 17.536 107.5 16.208V7.52ZM101.068 7.448C101.068 6.248 101.428 5.288 102.148 4.568C102.884 3.848 103.964 3.488 105.388 3.488C106.828 3.488 107.916 3.856 108.652 4.592C109.388 5.312 109.756 6.264 109.756 7.448V16.304C109.756 17.488 109.388 18.44 108.652 19.16C107.916 19.88 106.836 20.24 105.412 20.24C103.988 20.24 102.908 19.88 102.172 19.16C101.436 18.44 101.068 17.488 101.068 16.304V7.448Z" fill="#0F172A"/>
<path d="M118.56 7.568C118.56 6.336 117.92 5.72 116.64 5.72H114.744V12.704H116.64C117.92 12.704 118.56 12.08 118.56 10.832V7.568ZM112.488 3.728H116.856C118.136 3.728 119.112 4.048 119.784 4.688C120.472 5.328 120.816 6.224 120.816 7.376V11.024C120.816 12.176 120.472 13.072 119.784 13.712C119.112 14.352 118.136 14.672 116.856 14.672H114.744V20H112.488V3.728Z" fill="#0F172A"/>
<path d="M126.056 14.52V15.36H125.04V20H124.072V15.36H123.056V14.52H126.056Z" fill="#0F172A"/>
<path d="M130.757 14.52V20H129.829V17.728C129.829 17.1893 129.867 16.648 129.941 16.104L129.045 18.584H128.245L127.341 16.104C127.421 16.6 127.461 17.1413 127.461 17.728V20H126.541V14.52H127.565L128.645 17.56L129.725 14.52H130.757Z" fill="#0F172A"/>
<path d="M2.387 24.296V24.737H1.477V29H0.973V24.737H0.063V24.296H2.387Z" fill="#0F172A"/>
<path d="M2.93027 23.96H3.42027V25.178C3.69093 25.0613 3.9616 25.003 4.23227 25.003C4.5076 25.003 4.72927 25.0823 4.89727 25.241C5.06993 25.3997 5.15627 25.6283 5.15627 25.927V29H4.65927V25.976C4.65927 25.6353 4.48893 25.465 4.14827 25.465C3.91027 25.465 3.66993 25.5233 3.42727 25.64V29H2.93027V23.96Z" fill="#0F172A"/>
<path d="M6.01847 27.985V26.039C6.01847 25.7077 6.1118 25.444 6.29847 25.248C6.4898 25.0473 6.7768 24.947 7.15947 24.947C7.54214 24.947 7.82447 25.0473 8.00647 25.248C8.19314 25.444 8.28647 25.7077 8.28647 26.039V27.257H6.50847V27.964C6.50847 28.174 6.5738 28.3303 6.70447 28.433C6.83514 28.5357 7.03814 28.587 7.31347 28.587C7.5888 28.587 7.87347 28.545 8.16747 28.461V28.923C7.93414 28.9977 7.65647 29.035 7.33447 29.035C6.45714 29.035 6.01847 28.685 6.01847 27.985ZM6.50847 26.844H7.81047V26.039C7.81047 25.6003 7.59347 25.381 7.15947 25.381C6.72547 25.381 6.50847 25.6003 6.50847 26.039V26.844Z" fill="#0F172A"/>
<path d="M12.1995 25.976C12.1995 25.6353 12.0268 25.465 11.6815 25.465C11.4575 25.465 11.2171 25.5257 10.9605 25.647V28.545H11.5485C11.9825 28.545 12.1995 28.3373 12.1995 27.922V25.976ZM10.9395 25.206C11.2521 25.0707 11.5391 25.003 11.8005 25.003C12.0618 25.003 12.2765 25.0847 12.4445 25.248C12.6171 25.4067 12.7035 25.633 12.7035 25.927V27.957C12.7035 28.2837 12.6078 28.5403 12.4165 28.727C12.2298 28.909 11.9801 29 11.6675 29H10.9605V30.043H10.4635V25.017H10.9395V25.206Z" fill="#0F172A"/>
<path d="M13.5943 23.96H14.0843V25.178C14.355 25.0613 14.6257 25.003 14.8963 25.003C15.1717 25.003 15.3933 25.0823 15.5613 25.241C15.734 25.3997 15.8203 25.6283 15.8203 25.927V29H15.3233V25.976C15.3233 25.6353 15.153 25.465 14.8123 25.465C14.5743 25.465 14.334 25.5233 14.0913 25.64V29H13.5943V23.96Z" fill="#0F172A"/>
<path d="M18.4605 26.039C18.4605 25.605 18.2459 25.388 17.8165 25.388C17.3872 25.388 17.1725 25.605 17.1725 26.039V27.978C17.1725 28.4167 17.3872 28.636 17.8165 28.636C18.2459 28.636 18.4605 28.4167 18.4605 27.978V26.039ZM16.6825 26.032C16.6825 25.7007 16.7759 25.437 16.9625 25.241C17.1492 25.045 17.4339 24.947 17.8165 24.947C18.1992 24.947 18.4839 25.045 18.6705 25.241C18.8572 25.437 18.9505 25.7007 18.9505 26.032V27.985C18.9505 28.3163 18.8572 28.58 18.6705 28.776C18.4839 28.972 18.1992 29.07 17.8165 29.07C17.4339 29.07 17.1492 28.972 16.9625 28.776C16.7759 28.58 16.6825 28.3163 16.6825 27.985V26.032Z" fill="#0F172A"/>
<path d="M20.3252 25.199C20.6379 25.0683 20.9225 25.003 21.1792 25.003C21.4405 25.003 21.6552 25.0847 21.8232 25.248C21.9912 25.4067 22.0752 25.633 22.0752 25.927V29H21.5782V25.976C21.5782 25.6353 21.4055 25.465 21.0602 25.465C20.8409 25.465 20.6029 25.5257 20.3462 25.647V29H19.8492V25.017H20.3252V25.199Z" fill="#0F172A"/>
<path d="M22.9374 27.985V26.039C22.9374 25.7077 23.0307 25.444 23.2174 25.248C23.4087 25.0473 23.6957 24.947 24.0784 24.947C24.4611 24.947 24.7434 25.0473 24.9254 25.248C25.1121 25.444 25.2054 25.7077 25.2054 26.039V27.257H23.4274V27.964C23.4274 28.174 23.4927 28.3303 23.6234 28.433C23.7541 28.5357 23.9571 28.587 24.2324 28.587C24.5077 28.587 24.7924 28.545 25.0864 28.461V28.923C24.8531 28.9977 24.5754 29.035 24.2534 29.035C23.3761 29.035 22.9374 28.685 22.9374 27.985ZM23.4274 26.844H24.7294V26.039C24.7294 25.6003 24.5124 25.381 24.0784 25.381C23.6444 25.381 23.4274 25.6003 23.4274 26.039V26.844Z" fill="#0F172A"/>
<path d="M28.5794 29H28.0824V27.411L26.9274 24.296H27.4384L27.9144 25.577C27.9331 25.6283 28.0754 26.046 28.3414 26.83C28.5141 26.2933 28.8104 25.4487 29.2304 24.296H29.7344L28.5794 27.411V29Z" fill="#0F172A"/>
<path d="M31.9547 26.039C31.9547 25.605 31.74 25.388 31.3107 25.388C30.8813 25.388 30.6667 25.605 30.6667 26.039V27.978C30.6667 28.4167 30.8813 28.636 31.3107 28.636C31.74 28.636 31.9547 28.4167 31.9547 27.978V26.039ZM30.1767 26.032C30.1767 25.7007 30.27 25.437 30.4567 25.241C30.6433 25.045 30.928 24.947 31.3107 24.947C31.6933 24.947 31.978 25.045 32.1647 25.241C32.3513 25.437 32.4447 25.7007 32.4447 26.032V27.985C32.4447 28.3163 32.3513 28.58 32.1647 28.776C31.978 28.972 31.6933 29.07 31.3107 29.07C30.928 29.07 30.6433 28.972 30.4567 28.776C30.27 28.58 30.1767 28.3163 30.1767 27.985V26.032Z" fill="#0F172A"/>
<path d="M34.3724 28.573C34.6057 28.573 34.8297 28.5007 35.0444 28.356V25.017H35.5414V29H35.0654V28.811C34.7947 28.9463 34.517 29.014 34.2324 29.014C33.9524 29.014 33.7284 28.93 33.5604 28.762C33.3924 28.5893 33.3084 28.342 33.3084 28.02V25.017H33.8054V27.978C33.8054 28.3747 33.9944 28.573 34.3724 28.573Z" fill="#0F172A"/>
<path d="M38.0586 27.866V28.076C38.0586 28.2627 38.1029 28.4003 38.1916 28.489C38.2802 28.5777 38.4482 28.622 38.6956 28.622C38.9429 28.622 39.1762 28.531 39.3956 28.349V27.04L38.5976 27.264C38.3876 27.3247 38.2452 27.3993 38.1706 27.488C38.0959 27.5767 38.0586 27.7027 38.0586 27.866ZM38.6886 24.982C39.4819 24.982 39.8786 25.3203 39.8786 25.997V29H39.4026V28.713C39.1646 28.923 38.8799 29.028 38.5486 29.028C37.8999 29.028 37.5756 28.7083 37.5756 28.069V27.845C37.5756 27.3597 37.8579 27.0377 38.4226 26.879L39.4026 26.606V25.997C39.3979 25.8057 39.3442 25.6657 39.2416 25.577C39.1389 25.4883 38.9312 25.444 38.6186 25.444C38.3106 25.444 38.0259 25.4907 37.7646 25.584V25.115C38.0306 25.0263 38.3386 24.982 38.6886 24.982Z" fill="#0F172A"/>
<path d="M40.8082 23.96H41.3052V29H40.8082V23.96Z" fill="#0F172A"/>
<path d="M45.3511 25.017H45.8551L45.1341 29H44.4481C44.0701 26.8953 43.8811 25.7893 43.8811 25.682C43.8578 25.9573 43.7901 26.3983 43.6781 27.005L43.3141 29H42.6351L41.9071 25.017H42.4181L42.9851 28.489L43.6081 25.017H44.1611L44.7841 28.496L45.3511 25.017Z" fill="#0F172A"/>
<path d="M46.6787 27.866V28.076C46.6787 28.2627 46.723 28.4003 46.8117 28.489C46.9003 28.5777 47.0683 28.622 47.3157 28.622C47.563 28.622 47.7963 28.531 48.0157 28.349V27.04L47.2177 27.264C47.0077 27.3247 46.8653 27.3993 46.7907 27.488C46.716 27.5767 46.6787 27.7027 46.6787 27.866ZM47.3087 24.982C48.102 24.982 48.4987 25.3203 48.4987 25.997V29H48.0227V28.713C47.7847 28.923 47.5 29.028 47.1687 29.028C46.52 29.028 46.1957 28.7083 46.1957 28.069V27.845C46.1957 27.3597 46.478 27.0377 47.0427 26.879L48.0227 26.606V25.997C48.018 25.8057 47.9643 25.6657 47.8617 25.577C47.759 25.4883 47.5513 25.444 47.2387 25.444C46.9307 25.444 46.646 25.4907 46.3847 25.584V25.115C46.6507 25.0263 46.9587 24.982 47.3087 24.982Z" fill="#0F172A"/>
<path d="M51.0383 25.017H51.5353L50.4433 30.043H49.9673L50.1843 29H49.9393L49.0713 25.017H49.5753L49.9953 26.998L50.3033 28.65C50.3966 28.0993 50.4993 27.5487 50.6113 26.998L51.0383 25.017Z" fill="#0F172A"/>
<path d="M51.8552 25.955C51.8552 25.6283 51.9485 25.3857 52.1352 25.227C52.3218 25.0637 52.6275 24.982 53.0522 24.982C53.3135 24.982 53.5725 25.0217 53.8292 25.101V25.563C53.5958 25.479 53.3392 25.437 53.0592 25.437C52.7792 25.437 52.5902 25.479 52.4922 25.563C52.3942 25.6423 52.3452 25.7777 52.3452 25.969V26.151C52.3452 26.3003 52.3732 26.4147 52.4292 26.494C52.4898 26.5733 52.5995 26.648 52.7582 26.718L53.3602 27.012C53.7802 27.2173 53.9902 27.502 53.9902 27.866V28.055C53.9902 28.7083 53.5678 29.035 52.7232 29.035C52.4058 29.035 52.1258 28.9977 51.8832 28.923V28.461C52.1258 28.545 52.3942 28.587 52.6882 28.587C52.9868 28.587 53.1945 28.5427 53.3112 28.454C53.4325 28.3607 53.4932 28.2253 53.4932 28.048V27.908C53.4932 27.7773 53.4628 27.677 53.4022 27.607C53.3415 27.5323 53.2225 27.453 53.0452 27.369L52.4432 27.082C52.0512 26.8953 51.8552 26.599 51.8552 26.193V25.955Z" fill="#0F172A"/>
<path d="M57.6636 25.472H57.0896C56.6463 25.472 56.4246 25.6727 56.4246 26.074V27.985C56.4246 28.377 56.6136 28.573 56.9916 28.573C57.2716 28.573 57.4956 28.4937 57.6636 28.335V25.472ZM57.6636 23.96H58.1606V29H57.6777V28.769C57.4677 28.937 57.2063 29.021 56.8937 29.021C56.581 29.021 56.3406 28.9347 56.1726 28.762C56.0093 28.5893 55.9276 28.342 55.9276 28.02V26.067C55.9276 25.7357 56.0256 25.479 56.2216 25.297C56.4176 25.1103 56.679 25.017 57.0056 25.017H57.6636V23.96Z" fill="#0F172A"/>
<path d="M59.0585 27.985V26.039C59.0585 25.7077 59.1518 25.444 59.3385 25.248C59.5298 25.0473 59.8168 24.947 60.1995 24.947C60.5822 24.947 60.8645 25.0473 61.0465 25.248C61.2332 25.444 61.3265 25.7077 61.3265 26.039V27.257H59.5485V27.964C59.5485 28.174 59.6138 28.3303 59.7445 28.433C59.8752 28.5357 60.0782 28.587 60.3535 28.587C60.6288 28.587 60.9135 28.545 61.2075 28.461V28.923C60.9742 28.9977 60.6965 29.035 60.3745 29.035C59.4972 29.035 59.0585 28.685 59.0585 27.985ZM59.5485 26.844H60.8505V26.039C60.8505 25.6003 60.6335 25.381 60.1995 25.381C59.7655 25.381 59.5485 25.6003 59.5485 26.039V26.844Z" fill="#0F172A"/>
<path d="M61.8903 25.955C61.8903 25.6283 61.9837 25.3857 62.1703 25.227C62.357 25.0637 62.6627 24.982 63.0873 24.982C63.3487 24.982 63.6077 25.0217 63.8643 25.101V25.563C63.631 25.479 63.3743 25.437 63.0943 25.437C62.8143 25.437 62.6253 25.479 62.5273 25.563C62.4293 25.6423 62.3803 25.7777 62.3803 25.969V26.151C62.3803 26.3003 62.4083 26.4147 62.4643 26.494C62.525 26.5733 62.6347 26.648 62.7933 26.718L63.3953 27.012C63.8153 27.2173 64.0253 27.502 64.0253 27.866V28.055C64.0253 28.7083 63.603 29.035 62.7583 29.035C62.441 29.035 62.161 28.9977 61.9183 28.923V28.461C62.161 28.545 62.4293 28.587 62.7233 28.587C63.022 28.587 63.2297 28.5427 63.3463 28.454C63.4677 28.3607 63.5283 28.2253 63.5283 28.048V27.908C63.5283 27.7773 63.498 27.677 63.4373 27.607C63.3767 27.5323 63.2577 27.453 63.0803 27.369L62.4783 27.082C62.0863 26.8953 61.8903 26.599 61.8903 26.193V25.955Z" fill="#0F172A"/>
<path d="M64.9516 24.569C64.751 24.569 64.6506 24.4617 64.6506 24.247C64.6506 24.0323 64.751 23.925 64.9516 23.925C65.157 23.925 65.2596 24.0323 65.2596 24.247C65.2596 24.4617 65.157 24.569 64.9516 24.569ZM64.7066 25.045H65.2036V29H64.7066V25.045Z" fill="#0F172A"/>
<path d="M67.4575 24.996H67.6325V25.472H67.3945C67.2265 25.472 67.0749 25.5163 66.9395 25.605C66.8975 25.633 66.8065 25.696 66.6665 25.794V29H66.1695V25.017H66.6455V25.318C66.6595 25.3087 66.6945 25.283 66.7505 25.241C66.8112 25.199 66.8462 25.1757 66.8555 25.171C66.8695 25.1617 66.8999 25.143 66.9465 25.115C66.9979 25.087 67.0352 25.0707 67.0585 25.066C67.0865 25.0567 67.1239 25.045 67.1705 25.031C67.2405 25.0077 67.3362 24.996 67.4575 24.996Z" fill="#0F172A"/>
<path d="M68.0819 27.985V26.039C68.0819 25.7077 68.1753 25.444 68.3619 25.248C68.5533 25.0473 68.8403 24.947 69.2229 24.947C69.6056 24.947 69.8879 25.0473 70.0699 25.248C70.2566 25.444 70.3499 25.7077 70.3499 26.039V27.257H68.5719V27.964C68.5719 28.174 68.6373 28.3303 68.7679 28.433C68.8986 28.5357 69.1016 28.587 69.3769 28.587C69.6523 28.587 69.9369 28.545 70.2309 28.461V28.923C69.9976 28.9977 69.7199 29.035 69.3979 29.035C68.5206 29.035 68.0819 28.685 68.0819 27.985ZM68.5719 26.844H69.8739V26.039C69.8739 25.6003 69.6569 25.381 69.2229 25.381C68.7889 25.381 68.5719 25.6003 68.5719 26.039V26.844Z" fill="#0F172A"/>
<path d="M72.8668 25.472H72.2928C71.8494 25.472 71.6278 25.6727 71.6278 26.074V27.985C71.6278 28.377 71.8168 28.573 72.1948 28.573C72.4748 28.573 72.6988 28.4937 72.8668 28.335V25.472ZM72.8668 23.96H73.3638V29H72.8808V28.769C72.6708 28.937 72.4094 29.021 72.0968 29.021C71.7841 29.021 71.5438 28.9347 71.3758 28.762C71.2124 28.5893 71.1308 28.342 71.1308 28.02V26.067C71.1308 25.7357 71.2288 25.479 71.4248 25.297C71.6208 25.1103 71.8821 25.017 72.2088 25.017H72.8668V23.96Z" fill="#0F172A"/>
<path d="M74.3736 29.042C74.173 29.042 74.0726 28.937 74.0726 28.727C74.0726 28.5123 74.173 28.405 74.3736 28.405C74.579 28.405 74.6816 28.5123 74.6816 28.727C74.6816 28.937 74.579 29.042 74.3736 29.042Z" fill="#0F172A"/>
</svg>
