<svg width="209" height="56" viewBox="0 0 209 56" fill="none" xmlns="http://www.w3.org/2000/svg">
<rect width="209" height="56" fill="#1E1E1E"/>
<rect x="33.5" y="1.5" width="28" height="53" rx="4.5" stroke="#EB0000" stroke-width="3"/>
<g clip-path="url(#clip0_3_4)">
<rect width="112" height="36" transform="translate(6 10)" fill="#1E1E1E"/>
<path d="M9.17045 14.8182H12.9545L21.8523 36.5511H22.1591L31.0568 14.8182H34.8409V41H31.875V21.108H31.6193L23.4375 41H20.5739L12.392 21.108H12.1364V41H9.17045V14.8182ZM47.686 41.4091C45.9133 41.4091 44.3579 40.9872 43.0198 40.1435C41.6902 39.2997 40.6505 38.1193 39.9005 36.6023C39.159 35.0852 38.7883 33.3125 38.7883 31.2841C38.7883 29.2386 39.159 27.4531 39.9005 25.9276C40.6505 24.402 41.6902 23.2173 43.0198 22.3736C44.3579 21.5298 45.9133 21.108 47.686 21.108C49.4587 21.108 51.0098 21.5298 52.3394 22.3736C53.6775 23.2173 54.7172 24.402 55.4587 25.9276C56.2087 27.4531 56.5837 29.2386 56.5837 31.2841C56.5837 33.3125 56.2087 35.0852 55.4587 36.6023C54.7172 38.1193 53.6775 39.2997 52.3394 40.1435C51.0098 40.9872 49.4587 41.4091 47.686 41.4091ZM47.686 38.6989C49.0326 38.6989 50.1405 38.3537 51.0098 37.6634C51.8792 36.973 52.5226 36.0653 52.9402 34.9403C53.3579 33.8153 53.5667 32.5966 53.5667 31.2841C53.5667 29.9716 53.3579 28.7486 52.9402 27.6151C52.5226 26.4815 51.8792 25.5653 51.0098 24.8665C50.1405 24.1676 49.0326 23.8182 47.686 23.8182C46.3394 23.8182 45.2314 24.1676 44.3621 24.8665C43.4928 25.5653 42.8493 26.4815 42.4317 27.6151C42.0141 28.7486 41.8053 29.9716 41.8053 31.2841C41.8053 32.5966 42.0141 33.8153 42.4317 34.9403C42.8493 36.0653 43.4928 36.973 44.3621 37.6634C45.2314 38.3537 46.3394 38.6989 47.686 38.6989ZM60.5183 41V14.8182H63.5353V24.483H63.791C64.0126 24.142 64.3194 23.7074 64.7114 23.179C65.112 22.642 65.683 22.1648 66.4245 21.7472C67.1745 21.321 68.1887 21.108 69.4671 21.108C71.1205 21.108 72.5779 21.5213 73.8393 22.348C75.1007 23.1747 76.085 24.3466 76.7924 25.8636C77.4998 27.3807 77.8535 29.1705 77.8535 31.233C77.8535 33.3125 77.4998 35.1151 76.7924 36.6406C76.085 38.1577 75.1049 39.3338 73.8521 40.169C72.5992 40.9957 71.1546 41.4091 69.5183 41.4091C68.2569 41.4091 67.247 41.2003 66.4884 40.7827C65.7299 40.3565 65.1461 39.875 64.737 39.3381C64.3279 38.7926 64.0126 38.3409 63.791 37.983H63.433V41H60.5183ZM63.4842 31.1818C63.4842 32.6648 63.7015 33.973 64.1362 35.1065C64.5708 36.2315 65.2058 37.1136 66.041 37.7528C66.8762 38.3835 67.8989 38.6989 69.1092 38.6989C70.3705 38.6989 71.4231 38.3665 72.2668 37.7017C73.1191 37.0284 73.7583 36.125 74.1845 34.9915C74.6191 33.8494 74.8364 32.5795 74.8364 31.1818C74.8364 29.8011 74.6234 28.5568 74.1972 27.4489C73.7796 26.3324 73.1447 25.4503 72.2924 24.8026C71.4487 24.1463 70.3876 23.8182 69.1092 23.8182C67.8819 23.8182 66.8507 24.1293 66.0154 24.7514C65.1802 25.3651 64.5495 26.2259 64.1234 27.3338C63.6972 28.4332 63.4842 29.7159 63.4842 31.1818ZM81.3886 41V21.3636H84.4056V41H81.3886ZM82.9226 18.0909C82.3346 18.0909 81.8275 17.8906 81.4013 17.4901C80.9837 17.0895 80.7749 16.608 80.7749 16.0455C80.7749 15.483 80.9837 15.0014 81.4013 14.6009C81.8275 14.2003 82.3346 14 82.9226 14C83.5107 14 84.0136 14.2003 84.4312 14.6009C84.8573 15.0014 85.0704 15.483 85.0704 16.0455C85.0704 16.608 84.8573 17.0895 84.4312 17.4901C84.0136 17.8906 83.5107 18.0909 82.9226 18.0909ZM91.8686 14.8182V41H88.8515V14.8182H91.8686ZM104.547 41.4091C102.655 41.4091 101.023 40.9915 99.6511 40.1562C98.2875 39.3125 97.2349 38.1364 96.4935 36.6278C95.7605 35.1108 95.394 33.3466 95.394 31.3352C95.394 29.3239 95.7605 27.5511 96.4935 26.017C97.2349 24.4744 98.2662 23.2727 99.5872 22.4119C100.917 21.5426 102.468 21.108 104.241 21.108C105.263 21.108 106.273 21.2784 107.27 21.6193C108.268 21.9602 109.175 22.5142 109.993 23.2812C110.812 24.0398 111.464 25.0455 111.949 26.2983C112.435 27.5511 112.678 29.0937 112.678 30.9261V32.2045H97.5418V29.5966H109.61C109.61 28.4886 109.388 27.5 108.945 26.6307C108.511 25.7614 107.888 25.0753 107.079 24.5724C106.278 24.0696 105.332 23.8182 104.241 23.8182C103.039 23.8182 101.999 24.1165 101.121 24.7131C100.252 25.3011 99.583 26.0682 99.1142 27.0142C98.6455 27.9602 98.4111 28.9744 98.4111 30.0568V31.7955C98.4111 33.2784 98.6668 34.5355 99.1781 35.5668C99.698 36.5895 100.418 37.3693 101.339 37.9062C102.259 38.4347 103.329 38.6989 104.547 38.6989C105.34 38.6989 106.056 38.5881 106.695 38.3665C107.343 38.1364 107.901 37.7955 108.37 37.3438C108.839 36.8835 109.201 36.3125 109.457 35.6307L112.371 36.4489C112.064 37.4375 111.549 38.3068 110.824 39.0568C110.1 39.7983 109.205 40.3778 108.14 40.7955C107.074 41.2045 105.877 41.4091 104.547 41.4091Z" fill="white"/>
<path d="M9.17045 14.8182V14.6182H8.97045V14.8182H9.17045ZM12.9545 14.8182L13.1396 14.7424L13.0888 14.6182H12.9545V14.8182ZM21.8523 36.5511L21.6672 36.6269L21.718 36.7511H21.8523V36.5511ZM22.1591 36.5511V36.7511H22.2933L22.3442 36.6269L22.1591 36.5511ZM31.0568 14.8182V14.6182H30.9226L30.8717 14.7424L31.0568 14.8182ZM34.8409 14.8182H35.0409V14.6182H34.8409V14.8182ZM34.8409 41V41.2H35.0409V41H34.8409ZM31.875 41H31.675V41.2H31.875V41ZM31.875 21.108H32.075V20.908H31.875V21.108ZM31.6193 21.108V20.908H31.4853L31.4344 21.0319L31.6193 21.108ZM23.4375 41V41.2H23.5715L23.6225 41.0761L23.4375 41ZM20.5739 41L20.3889 41.0761L20.4399 41.2H20.5739V41ZM12.392 21.108L12.577 21.0319L12.526 20.908H12.392V21.108ZM12.1364 21.108V20.908H11.9364V21.108H12.1364ZM12.1364 41V41.2H12.3364V41H12.1364ZM9.17045 41H8.97045V41.2H9.17045V41ZM9.17045 15.0182H12.9545V14.6182H9.17045V15.0182ZM12.7695 14.894L21.6672 36.6269L22.0374 36.4754L13.1396 14.7424L12.7695 14.894ZM21.8523 36.7511H22.1591V36.3511H21.8523V36.7511ZM22.3442 36.6269L31.2419 14.894L30.8717 14.7424L21.974 36.4754L22.3442 36.6269ZM31.0568 15.0182H34.8409V14.6182H31.0568V15.0182ZM34.6409 14.8182V41H35.0409V14.8182H34.6409ZM34.8409 40.8H31.875V41.2H34.8409V40.8ZM32.075 41V21.108H31.675V41H32.075ZM31.875 20.908H31.6193V21.308H31.875V20.908ZM31.4344 21.0319L23.2525 40.9239L23.6225 41.0761L31.8043 21.184L31.4344 21.0319ZM23.4375 40.8H20.5739V41.2H23.4375V40.8ZM20.7588 40.9239L12.577 21.0319L12.2071 21.184L20.3889 41.0761L20.7588 40.9239ZM12.392 20.908H12.1364V21.308H12.392V20.908ZM11.9364 21.108V41H12.3364V21.108H11.9364ZM12.1364 40.8H9.17045V41.2H12.1364V40.8ZM9.37045 41V14.8182H8.97045V41H9.37045ZM43.0198 40.1435L42.9126 40.3123L42.9131 40.3126L43.0198 40.1435ZM39.9005 36.6023L39.7208 36.6901L39.7212 36.6909L39.9005 36.6023ZM39.9005 25.9276L39.721 25.8393L39.7206 25.8401L39.9005 25.9276ZM43.0198 22.3736L42.9131 22.2044L42.9126 22.2047L43.0198 22.3736ZM52.3394 22.3736L52.2322 22.5424L52.2327 22.5428L52.3394 22.3736ZM55.4587 25.9276L55.2788 26.015L55.2792 26.0158L55.4587 25.9276ZM55.4587 36.6023L55.2794 36.5136L55.279 36.5144L55.4587 36.6023ZM52.3394 40.1435L52.2327 39.9743L52.2322 39.9746L52.3394 40.1435ZM51.0098 37.6634L50.8855 37.5067L50.8855 37.5067L51.0098 37.6634ZM52.9402 34.9403L53.1277 35.0099L53.1277 35.0099L52.9402 34.9403ZM52.9402 27.6151L53.1279 27.5459L53.1279 27.5459L52.9402 27.6151ZM51.0098 24.8665L51.1352 24.7106L51.1352 24.7106L51.0098 24.8665ZM44.3621 24.8665L44.2368 24.7106L44.2368 24.7106L44.3621 24.8665ZM42.4317 27.6151L42.2441 27.5459L42.2441 27.5459L42.4317 27.6151ZM42.4317 34.9403L42.2442 35.0099L42.2442 35.0099L42.4317 34.9403ZM44.3621 37.6634L44.4865 37.5067L44.4865 37.5067L44.3621 37.6634ZM47.686 41.2091C45.9463 41.2091 44.4288 40.7955 43.1265 39.9743L42.9131 40.3126C44.2869 41.1789 45.8802 41.6091 47.686 41.6091V41.2091ZM43.127 39.9746C41.8307 39.152 40.8148 38.0004 40.0798 36.5136L39.7212 36.6909C40.4862 38.2383 41.5498 39.4475 42.9126 40.3123L43.127 39.9746ZM40.0802 36.5144C39.3545 35.0297 38.9883 33.2881 38.9883 31.2841H38.5883C38.5883 33.3369 38.9635 35.1407 39.7208 36.6901L40.0802 36.5144ZM38.9883 31.2841C38.9883 29.2628 39.3546 27.5083 40.0803 26.015L39.7206 25.8401C38.9634 27.398 38.5883 29.2145 38.5883 31.2841H38.9883ZM40.08 26.0158C40.8151 24.5205 41.8309 23.3649 43.127 22.5424L42.9126 22.2047C41.5495 23.0697 40.4859 24.2835 39.721 25.8393L40.08 26.0158ZM43.1265 22.5428C44.4288 21.7215 45.9463 21.308 47.686 21.308V20.908C45.8802 20.908 44.2869 21.3382 42.9131 22.2044L43.1265 22.5428ZM47.686 21.308C49.4257 21.308 50.9386 21.7215 52.2322 22.5424L52.4466 22.2047C51.0811 21.3381 49.4917 20.908 47.686 20.908V21.308ZM52.2327 22.5428C53.5369 23.3652 54.5524 24.5204 55.2788 26.015L55.6386 25.8401C54.882 24.2835 53.818 23.0695 52.4461 22.2044L52.2327 22.5428ZM55.2792 26.0158C56.0133 27.5089 56.3837 29.2631 56.3837 31.2841H56.7837C56.7837 29.2142 56.4042 27.3974 55.6382 25.8393L55.2792 26.0158ZM56.3837 31.2841C56.3837 33.2878 56.0134 35.0291 55.2794 36.5136L55.638 36.6909C56.4041 35.1414 56.7837 33.3372 56.7837 31.2841H56.3837ZM55.279 36.5144C54.5527 38.0005 53.5372 39.1517 52.2327 39.9743L52.4461 40.3126C53.8177 39.4477 54.8818 38.2382 55.6384 36.6901L55.279 36.5144ZM52.2322 39.9746C50.9386 40.7955 49.4257 41.2091 47.686 41.2091V41.6091C49.4917 41.6091 51.0811 41.1789 52.4466 40.3123L52.2322 39.9746ZM47.686 38.8989C49.0678 38.8989 50.2225 38.544 51.1342 37.82L50.8855 37.5067C50.0586 38.1634 48.9973 38.4989 47.686 38.4989V38.8989ZM51.1342 37.82C52.0344 37.1051 52.6985 36.1663 53.1277 35.0099L52.7527 34.8707C52.3468 35.9644 51.7239 36.8409 50.8855 37.5067L51.1342 37.82ZM53.1277 35.0099C53.5544 33.8607 53.7667 32.6181 53.7667 31.2841H53.3667C53.3667 32.5751 53.1613 33.77 52.7527 34.8707L53.1277 35.0099ZM53.7667 31.2841C53.7667 29.95 53.5544 28.7034 53.1279 27.5459L52.7526 27.6842C53.1614 28.7937 53.3667 29.9931 53.3667 31.2841H53.7667ZM53.1279 27.5459C52.6988 26.3813 52.0351 25.4341 51.1352 24.7106L50.8845 25.0224C51.7233 25.6966 52.3464 26.5818 52.7526 27.6842L53.1279 27.5459ZM51.1352 24.7106C50.2234 23.9776 49.0684 23.6182 47.686 23.6182V24.0182C48.9968 24.0182 50.0577 24.3576 50.8845 25.0224L51.1352 24.7106ZM47.686 23.6182C46.3036 23.6182 45.1486 23.9776 44.2368 24.7106L44.4874 25.0224C45.3143 24.3576 46.3752 24.0182 47.686 24.0182V23.6182ZM44.2368 24.7106C43.3369 25.4341 42.6731 26.3813 42.2441 27.5459L42.6194 27.6842C43.0255 26.5818 43.6487 25.6966 44.4874 25.0224L44.2368 24.7106ZM42.2441 27.5459C41.8176 28.7034 41.6053 29.95 41.6053 31.2841H42.0053C42.0053 29.9931 42.2106 28.7937 42.6194 27.6842L42.2441 27.5459ZM41.6053 31.2841C41.6053 32.6181 41.8176 33.8607 42.2442 35.0099L42.6192 34.8707C42.2106 33.77 42.0053 32.5751 42.0053 31.2841H41.6053ZM42.2442 35.0099C42.6735 36.1663 43.3375 37.1051 44.2377 37.82L44.4865 37.5067C43.6481 36.8409 43.0252 35.9644 42.6192 34.8707L42.2442 35.0099ZM44.2377 37.82C45.1495 38.544 46.3042 38.8989 47.686 38.8989V38.4989C46.3746 38.4989 45.3134 38.1634 44.4865 37.5067L44.2377 37.82ZM60.5183 41H60.3183V41.2H60.5183V41ZM60.5183 14.8182V14.6182H60.3183V14.8182H60.5183ZM63.5353 14.8182H63.7353V14.6182H63.5353V14.8182ZM63.5353 24.483H63.3353V24.683H63.5353V24.483ZM63.791 24.483V24.683H63.8995L63.9587 24.592L63.791 24.483ZM64.7114 23.179L64.5511 23.0594L64.5508 23.0598L64.7114 23.179ZM66.4245 21.7472L66.5227 21.9214L66.5233 21.9211L66.4245 21.7472ZM73.8393 22.348L73.9489 22.1807L73.9489 22.1807L73.8393 22.348ZM76.7924 36.6406L76.9737 36.7251L76.9739 36.7248L76.7924 36.6406ZM73.8521 40.169L73.9622 40.336L73.963 40.3354L73.8521 40.169ZM66.4884 40.7827L66.3905 40.957L66.392 40.9579L66.4884 40.7827ZM64.737 39.3381L64.577 39.4581L64.5779 39.4593L64.737 39.3381ZM63.791 37.983L63.961 37.8777L63.9024 37.783H63.791V37.983ZM63.433 37.983V37.783H63.233V37.983H63.433ZM63.433 41V41.2H63.633V41H63.433ZM64.1362 35.1065L63.9494 35.1781L63.9496 35.1786L64.1362 35.1065ZM66.041 37.7528L65.9194 37.9117L65.9205 37.9124L66.041 37.7528ZM72.2668 37.7017L72.3906 37.8588L72.3908 37.8586L72.2668 37.7017ZM74.1845 34.9915L73.9975 34.9203L73.9973 34.9211L74.1845 34.9915ZM74.1972 27.4489L74.0099 27.5189L74.0106 27.5207L74.1972 27.4489ZM72.2924 24.8026L72.1696 24.9604L72.1714 24.9618L72.2924 24.8026ZM66.0154 24.7514L66.1338 24.9126L66.1349 24.9118L66.0154 24.7514ZM64.1234 27.3338L64.3099 27.4061L64.3101 27.4056L64.1234 27.3338ZM60.7183 41V14.8182H60.3183V41H60.7183ZM60.5183 15.0182H63.5353V14.6182H60.5183V15.0182ZM63.3353 14.8182V24.483H63.7353V14.8182H63.3353ZM63.5353 24.683H63.791V24.283H63.5353V24.683ZM63.9587 24.592C64.1771 24.2559 64.4812 23.825 64.8721 23.2981L64.5508 23.0598C64.1576 23.5898 63.8481 24.0281 63.6233 24.374L63.9587 24.592ZM64.8718 23.2986C65.2518 22.7892 65.7992 22.3289 66.5227 21.9214L66.3264 21.5729C65.5669 22.0006 64.9723 22.4949 64.5511 23.0594L64.8718 23.2986ZM66.5233 21.9211C67.2321 21.5183 68.2079 21.308 69.4671 21.308V20.908C68.1696 20.908 67.1169 21.1237 66.3257 21.5733L66.5233 21.9211ZM69.4671 21.308C71.0855 21.308 72.504 21.712 73.7297 22.5153L73.9489 22.1807C72.6519 21.3306 71.1556 20.908 69.4671 20.908V21.308ZM73.7297 22.5153C74.9566 23.3194 75.9177 24.461 76.6112 25.9482L76.9737 25.7791C76.2524 24.2322 75.2447 23.03 73.9489 22.1807L73.7297 22.5153ZM76.6112 25.9482C77.3037 27.4333 77.6535 29.193 77.6535 31.233H78.0535C78.0535 29.1479 77.6959 27.328 76.9737 25.7791L76.6112 25.9482ZM77.6535 31.233C77.6535 33.2901 77.3036 35.0628 76.611 36.5565L76.9739 36.7248C77.696 35.1674 78.0535 33.3349 78.0535 31.233H77.6535ZM76.6112 36.5561C75.9175 38.0437 74.9601 39.1899 73.7411 40.0026L73.963 40.3354C75.2497 39.4777 76.2526 38.2716 76.9737 36.7251L76.6112 36.5561ZM73.7419 40.0021C72.5247 40.8053 71.1192 41.2091 69.5183 41.2091V41.6091C71.1901 41.6091 72.6738 41.1862 73.9622 40.336L73.7419 40.0021ZM69.5183 41.2091C68.2763 41.2091 67.3034 41.0031 66.5849 40.6075L66.392 40.9579C67.1905 41.3975 68.2375 41.6091 69.5183 41.6091V41.2091ZM66.5864 40.6083C65.8451 40.1918 65.2846 39.7268 64.8961 39.2169L64.5779 39.4593C65.0076 40.0232 65.6148 40.5212 66.3905 40.957L66.5864 40.6083ZM64.897 39.2181C64.4896 38.6749 64.1782 38.2285 63.961 37.8777L63.6209 38.0882C63.847 38.4533 64.1662 38.9104 64.577 39.4581L64.897 39.2181ZM63.791 37.783H63.433V38.183H63.791V37.783ZM63.233 37.983V41H63.633V37.983H63.233ZM63.433 40.8H60.5183V41.2H63.433V40.8ZM63.2842 31.1818C63.2842 32.684 63.5043 34.0173 63.9494 35.1781L64.3229 35.0349C63.8987 33.9287 63.6842 32.6455 63.6842 31.1818H63.2842ZM63.9496 35.1786C64.3955 36.3328 65.0509 37.247 65.9194 37.9117L66.1625 37.594C65.3606 36.9803 64.7461 36.1302 64.3227 35.0345L63.9496 35.1786ZM65.9205 37.9124C66.7957 38.5733 67.8625 38.8989 69.1092 38.8989V38.4989C67.9354 38.4989 66.9568 38.1937 66.1615 37.5932L65.9205 37.9124ZM69.1092 38.8989C70.4073 38.8989 71.5057 38.556 72.3906 37.8588L72.1431 37.5446C71.3405 38.1769 70.3338 38.4989 69.1092 38.4989V38.8989ZM72.3908 37.8586C73.2749 37.1603 73.9342 36.2254 74.3717 35.0619L73.9973 34.9211C73.5824 36.0246 72.9634 36.8966 72.1429 37.5448L72.3908 37.8586ZM74.3714 35.0626C74.8158 33.8948 75.0364 32.6004 75.0364 31.1818H74.6364C74.6364 32.5587 74.4224 33.804 73.9975 34.9203L74.3714 35.0626ZM75.0364 31.1818C75.0364 29.7805 74.8202 28.5113 74.3839 27.3771L74.0106 27.5207C74.4266 28.6023 74.6364 29.8217 74.6364 31.1818H75.0364ZM74.3846 27.3788C73.9553 26.2311 73.2991 25.3165 72.4134 24.6433L72.1714 24.9618C72.9902 25.5841 73.604 26.4337 74.0099 27.5189L74.3846 27.3788ZM72.4152 24.6447C71.5298 23.9561 70.423 23.6182 69.1092 23.6182V24.0182C70.3521 24.0182 71.3675 24.3365 72.1696 24.9604L72.4152 24.6447ZM69.1092 23.6182C67.8468 23.6182 66.7716 23.9388 65.896 24.591L66.1349 24.9118C66.9297 24.3197 67.917 24.0182 69.1092 24.0182V23.6182ZM65.897 24.5902C65.0267 25.2297 64.3745 26.1237 63.9367 27.262L64.3101 27.4056C64.7245 26.328 65.3337 25.5004 66.1338 24.9126L65.897 24.5902ZM63.9369 27.2615C63.4999 28.3889 63.2842 29.697 63.2842 31.1818H63.6842C63.6842 29.7348 63.8945 28.4776 64.3099 27.4061L63.9369 27.2615ZM81.3886 41H81.1886V41.2H81.3886V41ZM81.3886 21.3636V21.1636H81.1886V21.3636H81.3886ZM84.4056 21.3636H84.6056V21.1636H84.4056V21.3636ZM84.4056 41V41.2H84.6056V41H84.4056ZM81.4013 17.4901L81.2629 17.6344L81.2644 17.6358L81.4013 17.4901ZM81.4013 14.6009L81.2643 14.4551L81.2629 14.4565L81.4013 14.6009ZM84.4312 14.6009L84.2927 14.7452L84.2942 14.7466L84.4312 14.6009ZM84.4312 17.4901L84.2942 17.3443L84.2927 17.3457L84.4312 17.4901ZM81.5886 41V21.3636H81.1886V41H81.5886ZM81.3886 21.5636H84.4056V21.1636H81.3886V21.5636ZM84.2056 21.3636V41H84.6056V21.3636H84.2056ZM84.4056 40.8H81.3886V41.2H84.4056V40.8ZM82.9226 17.8909C82.3852 17.8909 81.9271 17.7098 81.5383 17.3443L81.2644 17.6358C81.7278 18.0714 82.284 18.2909 82.9226 18.2909V17.8909ZM81.5398 17.3457C81.1602 16.9816 80.9749 16.5517 80.9749 16.0455H80.5749C80.5749 16.6642 80.8072 17.1973 81.2629 17.6344L81.5398 17.3457ZM80.9749 16.0455C80.9749 15.5392 81.1602 15.1093 81.5398 14.7452L81.2629 14.4565C80.8072 14.8936 80.5749 15.4267 80.5749 16.0455H80.9749ZM81.5383 14.7466C81.9271 14.3811 82.3852 14.2 82.9226 14.2V13.8C82.284 13.8 81.7278 14.0195 81.2644 14.4551L81.5383 14.7466ZM82.9226 14.2C83.46 14.2 83.913 14.381 84.2927 14.7452L84.5696 14.4565C84.1141 14.0196 83.5614 13.8 82.9226 13.8V14.2ZM84.2942 14.7466C84.6819 15.111 84.8704 15.5406 84.8704 16.0455H85.2704C85.2704 15.4253 85.0327 14.8918 84.5681 14.4551L84.2942 14.7466ZM84.8704 16.0455C84.8704 16.5503 84.6819 16.9799 84.2942 17.3443L84.5681 17.6358C85.0327 17.1991 85.2704 16.6656 85.2704 16.0455H84.8704ZM84.2927 17.3457C83.913 17.7099 83.46 17.8909 82.9226 17.8909V18.2909C83.5614 18.2909 84.1141 18.0713 84.5696 17.6344L84.2927 17.3457ZM91.8686 14.8182H92.0686V14.6182H91.8686V14.8182ZM91.8686 41V41.2H92.0686V41H91.8686ZM88.8515 41H88.6515V41.2H88.8515V41ZM88.8515 14.8182V14.6182H88.6515V14.8182H88.8515ZM91.6686 14.8182V41H92.0686V14.8182H91.6686ZM91.8686 40.8H88.8515V41.2H91.8686V40.8ZM89.0515 41V14.8182H88.6515V41H89.0515ZM88.8515 15.0182H91.8686V14.6182H88.8515V15.0182ZM99.6511 40.1562L99.5459 40.3263L99.5471 40.3271L99.6511 40.1562ZM96.4935 36.6278L96.3134 36.7148L96.314 36.7161L96.4935 36.6278ZM96.4935 26.017L96.3132 25.9304L96.313 25.9308L96.4935 26.017ZM99.5872 22.4119L99.6964 22.5795L99.6967 22.5793L99.5872 22.4119ZM107.27 21.6193L107.335 21.4301L107.335 21.4301L107.27 21.6193ZM109.993 23.2812L109.857 23.4272L109.857 23.4279L109.993 23.2812ZM111.949 26.2983L112.136 26.226L112.136 26.226L111.949 26.2983ZM112.678 32.2045V32.4045H112.878V32.2045H112.678ZM97.5418 32.2045H97.3418V32.4045H97.5418V32.2045ZM97.5418 29.5966V29.3966H97.3418V29.5966H97.5418ZM109.61 29.5966V29.7966H109.81V29.5966H109.61ZM108.945 26.6307L108.766 26.7201L108.767 26.7215L108.945 26.6307ZM107.079 24.5724L106.972 24.7418L106.973 24.7423L107.079 24.5724ZM101.121 24.7131L101.233 24.8787L101.234 24.8785L101.121 24.7131ZM99.1142 27.0142L98.935 26.9254L98.935 26.9254L99.1142 27.0142ZM99.1781 35.5668L98.9989 35.6556L98.9998 35.6574L99.1781 35.5668ZM101.339 37.9062L101.238 38.079L101.239 38.0797L101.339 37.9062ZM106.695 38.3665L106.761 38.5554L106.762 38.5549L106.695 38.3665ZM108.37 37.3438L108.509 37.4878L108.51 37.4865L108.37 37.3438ZM109.457 35.6307L109.511 35.4381L109.334 35.3885L109.269 35.5605L109.457 35.6307ZM112.371 36.4489L112.562 36.5081L112.623 36.3119L112.425 36.2563L112.371 36.4489ZM110.824 39.0568L110.967 39.1966L110.968 39.1958L110.824 39.0568ZM108.14 40.7955L108.211 40.9822L108.213 40.9817L108.14 40.7955ZM104.547 41.2091C102.685 41.2091 101.091 40.7984 99.7551 39.9854L99.5471 40.3271C100.956 41.1846 102.625 41.6091 104.547 41.6091V41.2091ZM99.7564 39.9862C98.4263 39.1632 97.3987 38.0161 96.673 36.5396L96.314 36.7161C97.0712 38.2566 98.1487 39.4618 99.5459 40.3263L99.7564 39.9862ZM96.6735 36.5408C95.956 35.0557 95.594 33.3222 95.594 31.3352H95.194C95.194 33.3709 95.565 35.1659 96.3134 36.7148L96.6735 36.5408ZM95.594 31.3352C95.594 29.3483 95.956 27.6059 96.6739 26.1033L96.313 25.9308C95.565 27.4963 95.194 29.2994 95.194 31.3352H95.594ZM96.6737 26.1037C97.4008 24.5911 98.4086 23.4186 99.6964 22.5795L99.478 22.2444C98.1238 23.1268 97.0691 24.3577 96.3132 25.9304L96.6737 26.1037ZM99.6967 22.5793C100.99 21.7337 102.502 21.308 104.241 21.308V20.908C102.434 20.908 100.844 21.3515 99.4778 22.2445L99.6967 22.5793ZM104.241 21.308C105.241 21.308 106.229 21.4746 107.206 21.8086L107.335 21.4301C106.318 21.0823 105.286 20.908 104.241 20.908V21.308ZM107.206 21.8086C108.174 22.1397 109.058 22.6782 109.857 23.4272L110.13 23.1353C109.293 22.3502 108.361 21.7807 107.335 21.4301L107.206 21.8086ZM109.857 23.4279C110.649 24.162 111.286 25.1404 111.763 26.3706L112.136 26.226C111.641 24.9506 110.974 23.9175 110.129 23.1346L109.857 23.4279ZM111.763 26.3706C112.237 27.5937 112.478 29.1101 112.478 30.9261H112.878C112.878 29.0774 112.633 27.5086 112.136 26.226L111.763 26.3706ZM112.478 30.9261V32.2045H112.878V30.9261H112.478ZM112.678 32.0045H97.5418V32.4045H112.678V32.0045ZM97.7418 32.2045V29.5966H97.3418V32.2045H97.7418ZM97.5418 29.7966H109.61V29.3966H97.5418V29.7966ZM109.81 29.5966C109.81 28.4614 109.583 27.4409 109.123 26.5398L108.767 26.7215C109.194 27.5591 109.41 28.5159 109.41 29.5966H109.81ZM109.124 26.5412C108.673 25.6395 108.026 24.9253 107.184 24.4025L106.973 24.7423C107.751 25.2253 108.348 25.8832 108.766 26.7201L109.124 26.5412ZM107.185 24.403C106.347 23.8773 105.363 23.6182 104.241 23.6182V24.0182C105.3 24.0182 106.208 24.2619 106.972 24.7418L107.185 24.403ZM104.241 23.6182C103.004 23.6182 101.924 23.9256 101.009 24.5477L101.234 24.8785C102.074 24.3073 103.074 24.0182 104.241 24.0182V23.6182ZM101.009 24.5474C100.111 25.155 99.419 25.9486 98.935 26.9254L99.2934 27.103C99.7469 26.1878 100.393 25.4473 101.233 24.8787L101.009 24.5474ZM98.935 26.9254C98.4522 27.8997 98.2111 28.9444 98.2111 30.0568H98.6111C98.6111 29.0044 98.8387 28.0207 99.2934 27.103L98.935 26.9254ZM98.2111 30.0568V31.7955H98.6111V30.0568H98.2111ZM98.2111 31.7955C98.2111 33.3006 98.4705 34.59 98.9989 35.6556L99.3573 35.4779C98.863 34.4811 98.6111 33.2562 98.6111 31.7955H98.2111ZM98.9998 35.6574C99.5357 36.7116 100.282 37.5212 101.238 38.079L101.439 37.7335C100.555 37.2174 99.8603 36.4673 99.3564 35.4761L98.9998 35.6574ZM101.239 38.0797C102.194 38.6279 103.299 38.8989 104.547 38.8989V38.4989C103.358 38.4989 102.324 38.2414 101.438 37.7328L101.239 38.0797ZM104.547 38.8989C105.359 38.8989 106.097 38.7855 106.761 38.5554L106.63 38.1775C106.015 38.3907 105.321 38.4989 104.547 38.4989V38.8989ZM106.762 38.5549C107.435 38.3158 108.018 37.9603 108.509 37.4878L108.231 37.1997C107.784 37.6306 107.251 37.9569 106.628 38.178L106.762 38.5549ZM108.51 37.4865C109.002 37.0037 109.379 36.407 109.644 35.7009L109.269 35.5605C109.023 36.218 108.676 36.7634 108.23 37.201L108.51 37.4865ZM109.402 35.8232L112.317 36.6414L112.425 36.2563L109.511 35.4381L109.402 35.8232ZM112.18 36.3896C111.883 37.3481 111.383 38.1902 110.681 38.9179L110.968 39.1958C111.714 38.4234 112.246 37.5269 112.562 36.5081L112.18 36.3896ZM110.681 38.9171C109.979 39.6362 109.109 40.2009 108.067 40.6092L108.213 40.9817C109.302 40.5548 110.221 39.9603 110.967 39.1966L110.681 38.9171ZM108.068 40.6087C107.029 41.0077 105.856 41.2091 104.547 41.2091V41.6091C105.898 41.6091 107.12 41.4014 108.211 40.9822L108.068 40.6087Z" fill="white"/>
</g>
<path d="M135.489 22.3636C135.335 21.0682 134.713 20.0625 133.622 19.3466C132.531 18.6307 131.193 18.2727 129.608 18.2727C128.449 18.2727 127.435 18.4602 126.565 18.8352C125.705 19.2102 125.031 19.7259 124.545 20.3821C124.068 21.0384 123.83 21.7841 123.83 22.6193C123.83 23.3182 123.996 23.919 124.328 24.4219C124.669 24.9162 125.104 25.3295 125.632 25.6619C126.161 25.9858 126.714 26.2543 127.294 26.4673C127.874 26.6719 128.406 26.8381 128.892 26.9659L131.551 27.6818C132.233 27.8608 132.991 28.108 133.827 28.4233C134.67 28.7386 135.476 29.169 136.243 29.7145C137.018 30.2514 137.658 30.9418 138.161 31.7855C138.663 32.6293 138.915 33.6648 138.915 34.892C138.915 36.3068 138.544 37.5852 137.803 38.7273C137.07 39.8693 135.996 40.777 134.581 41.4503C133.175 42.1236 131.466 42.4602 129.455 42.4602C127.58 42.4602 125.956 42.1577 124.584 41.5526C123.22 40.9474 122.146 40.1037 121.362 39.0213C120.587 37.9389 120.148 36.6818 120.045 35.25H123.318C123.403 36.2386 123.736 37.0568 124.315 37.7045C124.903 38.3437 125.645 38.821 126.54 39.1364C127.443 39.4432 128.415 39.5966 129.455 39.5966C130.665 39.5966 131.751 39.4006 132.714 39.0085C133.678 38.608 134.44 38.054 135.003 37.3466C135.565 36.6307 135.847 35.7955 135.847 34.8409C135.847 33.9716 135.604 33.2642 135.118 32.7188C134.632 32.1733 133.993 31.7301 133.2 31.3892C132.408 31.0483 131.551 30.75 130.631 30.4943L127.409 29.5739C125.364 28.9858 123.744 28.1463 122.551 27.0554C121.358 25.9645 120.761 24.5369 120.761 22.7727C120.761 21.3068 121.158 20.0284 121.95 18.9375C122.751 17.8381 123.825 16.9858 125.172 16.3807C126.527 15.767 128.04 15.4602 129.71 15.4602C131.398 15.4602 132.898 15.7628 134.21 16.3679C135.523 16.9645 136.563 17.7827 137.33 18.8224C138.105 19.8622 138.514 21.0426 138.557 22.3636H135.489ZM145.655 30.1875V42H142.638V15.8182H145.655V25.4318H145.911C146.371 24.4176 147.062 23.6122 147.982 23.0156C148.911 22.4105 150.147 22.108 151.69 22.108C153.028 22.108 154.199 22.3764 155.205 22.9134C156.211 23.4418 156.991 24.2557 157.545 25.3551C158.107 26.446 158.388 27.8352 158.388 29.5227V42H155.371V29.7273C155.371 28.1676 154.967 26.9616 154.157 26.1094C153.356 25.2486 152.244 24.8182 150.82 24.8182C149.832 24.8182 148.945 25.027 148.161 25.4446C147.386 25.8622 146.772 26.4716 146.32 27.2727C145.877 28.0739 145.655 29.0455 145.655 30.1875ZM170.805 42.4091C169.032 42.4091 167.477 41.9872 166.139 41.1435C164.809 40.2997 163.77 39.1193 163.02 37.6023C162.278 36.0852 161.907 34.3125 161.907 32.2841C161.907 30.2386 162.278 28.4531 163.02 26.9276C163.77 25.402 164.809 24.2173 166.139 23.3736C167.477 22.5298 169.032 22.108 170.805 22.108C172.578 22.108 174.129 22.5298 175.459 23.3736C176.797 24.2173 177.836 25.402 178.578 26.9276C179.328 28.4531 179.703 30.2386 179.703 32.2841C179.703 34.3125 179.328 36.0852 178.578 37.6023C177.836 39.1193 176.797 40.2997 175.459 41.1435C174.129 41.9872 172.578 42.4091 170.805 42.4091ZM170.805 39.6989C172.152 39.6989 173.26 39.3537 174.129 38.6634C174.998 37.973 175.642 37.0653 176.059 35.9403C176.477 34.8153 176.686 33.5966 176.686 32.2841C176.686 30.9716 176.477 29.7486 176.059 28.6151C175.642 27.4815 174.998 26.5653 174.129 25.8665C173.26 25.1676 172.152 24.8182 170.805 24.8182C169.459 24.8182 168.351 25.1676 167.481 25.8665C166.612 26.5653 165.969 27.4815 165.551 28.6151C165.133 29.7486 164.925 30.9716 164.925 32.2841C164.925 33.5966 165.133 34.8153 165.551 35.9403C165.969 37.0653 166.612 37.973 167.481 38.6634C168.351 39.3537 169.459 39.6989 170.805 39.6989ZM183.228 49.3636V22.3636H186.143V25.483H186.501C186.723 25.142 187.03 24.7074 187.422 24.179C187.822 23.642 188.393 23.1648 189.135 22.7472C189.885 22.321 190.899 22.108 192.177 22.108C193.831 22.108 195.288 22.5213 196.549 23.348C197.811 24.1747 198.795 25.3466 199.503 26.8636C200.21 28.3807 200.564 30.1705 200.564 32.233C200.564 34.3125 200.21 36.1151 199.503 37.6406C198.795 39.1577 197.815 40.3338 196.562 41.169C195.309 41.9957 193.865 42.4091 192.228 42.4091C190.967 42.4091 189.957 42.2003 189.199 41.7827C188.44 41.3565 187.856 40.875 187.447 40.3381C187.038 39.7926 186.723 39.3409 186.501 38.983H186.245V49.3636H183.228ZM186.194 32.1818C186.194 33.6648 186.412 34.973 186.846 36.1065C187.281 37.2315 187.916 38.1136 188.751 38.7528C189.586 39.3835 190.609 39.6989 191.819 39.6989C193.081 39.6989 194.133 39.3665 194.977 38.7017C195.829 38.0284 196.468 37.125 196.895 35.9915C197.329 34.8494 197.547 33.5795 197.547 32.1818C197.547 30.8011 197.334 29.5568 196.907 28.4489C196.49 27.3324 195.855 26.4503 195.003 25.8026C194.159 25.1463 193.098 24.8182 191.819 24.8182C190.592 24.8182 189.561 25.1293 188.726 25.7514C187.89 26.3651 187.26 27.2259 186.834 28.3338C186.407 29.4332 186.194 30.7159 186.194 32.1818Z" fill="white"/>
<path d="M135.489 22.3636L135.29 22.3872L135.311 22.5636H135.489V22.3636ZM133.622 19.3466L133.512 19.5138L133.512 19.5138L133.622 19.3466ZM126.565 18.8352L126.486 18.6516L126.485 18.6519L126.565 18.8352ZM124.545 20.3821L124.385 20.2631L124.384 20.2645L124.545 20.3821ZM124.328 24.4219L124.161 24.5322L124.163 24.5354L124.328 24.4219ZM125.632 25.6619L125.526 25.8312L125.528 25.8325L125.632 25.6619ZM127.294 26.4673L127.225 26.6551L127.227 26.6559L127.294 26.4673ZM128.892 26.9659L128.944 26.7728L128.943 26.7725L128.892 26.9659ZM131.551 27.6818L131.499 27.8749L131.5 27.8753L131.551 27.6818ZM133.827 28.4233L133.756 28.6104L133.757 28.6106L133.827 28.4233ZM136.243 29.7145L136.127 29.8775L136.129 29.8789L136.243 29.7145ZM138.161 31.7855L138.332 31.6831L138.332 31.6831L138.161 31.7855ZM137.803 38.7273L137.635 38.6184L137.634 38.6192L137.803 38.7273ZM134.581 41.4503L134.495 41.2697L134.495 41.2699L134.581 41.4503ZM124.584 41.5526L124.503 41.7354L124.503 41.7356L124.584 41.5526ZM121.362 39.0213L121.2 39.1378L121.2 39.1386L121.362 39.0213ZM120.045 35.25V35.05H119.831L119.846 35.2642L120.045 35.25ZM123.318 35.25L123.517 35.2328L123.502 35.05H123.318V35.25ZM124.315 37.7045L124.166 37.8379L124.168 37.84L124.315 37.7045ZM126.54 39.1364L126.473 39.325L126.475 39.3257L126.54 39.1364ZM132.714 39.0085L132.79 39.1938L132.791 39.1932L132.714 39.0085ZM135.003 37.3466L135.159 37.4711L135.16 37.4702L135.003 37.3466ZM135.118 32.7188L135.267 32.5857L135.267 32.5857L135.118 32.7188ZM133.2 31.3892L133.121 31.5729L133.121 31.5729L133.2 31.3892ZM130.631 30.4943L130.576 30.6866L130.577 30.687L130.631 30.4943ZM127.409 29.5739L127.354 29.7661L127.354 29.7662L127.409 29.5739ZM122.551 27.0554L122.416 27.203L122.416 27.203L122.551 27.0554ZM121.95 18.9375L121.789 18.8197L121.788 18.8199L121.95 18.9375ZM125.172 16.3807L125.254 16.5631L125.254 16.5629L125.172 16.3807ZM134.21 16.3679L134.126 16.5495L134.127 16.55L134.21 16.3679ZM137.33 18.8224L137.169 18.9412L137.169 18.942L137.33 18.8224ZM138.557 22.3636V22.5636H138.763L138.757 22.3572L138.557 22.3636ZM135.687 22.3401C135.527 20.986 134.872 19.9277 133.732 19.1794L133.512 19.5138C134.554 20.1973 135.144 21.1504 135.29 22.3872L135.687 22.3401ZM133.732 19.1794C132.602 18.4379 131.224 18.0727 129.608 18.0727V18.4727C131.163 18.4727 132.461 18.8235 133.512 19.5138L133.732 19.1794ZM129.608 18.0727C128.428 18.0727 127.385 18.2637 126.486 18.6516L126.645 19.0189C127.484 18.6568 128.47 18.4727 129.608 18.4727V18.0727ZM126.485 18.6519C125.597 19.0387 124.894 19.5747 124.385 20.2631L124.706 20.5011C125.168 19.877 125.812 19.3817 126.645 19.0186L126.485 18.6519ZM124.384 20.2645C123.881 20.956 123.63 21.7431 123.63 22.6193H124.03C124.03 21.825 124.256 21.1207 124.707 20.4997L124.384 20.2645ZM123.63 22.6193C123.63 23.351 123.804 23.9916 124.161 24.5322L124.495 24.3116C124.187 23.8464 124.03 23.2854 124.03 22.6193H123.63ZM124.163 24.5354C124.52 25.053 124.975 25.485 125.526 25.8312L125.739 25.4926C125.232 25.1741 124.818 24.7794 124.493 24.3083L124.163 24.5354ZM125.528 25.8325C126.067 26.1632 126.633 26.4374 127.225 26.655L127.363 26.2796C126.796 26.0711 126.254 25.8084 125.737 25.4914L125.528 25.8325ZM127.227 26.6559C127.811 26.8619 128.349 27.0298 128.841 27.1593L128.943 26.7725C128.463 26.6463 127.936 26.4818 127.361 26.2787L127.227 26.6559ZM128.84 27.159L131.499 27.8749L131.603 27.4887L128.944 26.7728L128.84 27.159ZM131.5 27.8753C132.174 28.0521 132.926 28.2969 133.756 28.6104L133.897 28.2362C133.057 27.919 132.292 27.6695 131.602 27.4884L131.5 27.8753ZM133.757 28.6106C134.583 28.9196 135.373 29.3416 136.127 29.8775L136.359 29.5515C135.578 28.9964 134.757 28.5576 133.897 28.236L133.757 28.6106ZM136.129 29.8789C136.88 30.3989 137.5 31.0677 137.989 31.8879L138.332 31.6831C137.815 30.8158 137.157 30.104 136.357 29.55L136.129 29.8789ZM137.989 31.8879C138.469 32.6938 138.715 33.6919 138.715 34.892H139.115C139.115 33.6376 138.858 32.5647 138.332 31.6831L137.989 31.8879ZM138.715 34.892C138.715 36.2698 138.354 37.51 137.635 38.6184L137.97 38.8362C138.734 37.6604 139.115 36.3439 139.115 34.892H138.715ZM137.634 38.6192C136.924 39.7253 135.881 40.6099 134.495 41.2697L134.667 41.6309C136.11 40.9441 137.215 40.0133 137.971 38.8353L137.634 38.6192ZM134.495 41.2699C133.122 41.9271 131.444 42.2602 129.455 42.2602V42.6602C131.487 42.6602 133.227 42.3201 134.667 41.6307L134.495 41.2699ZM129.455 42.2602C127.601 42.2602 126.006 41.961 124.665 41.3696L124.503 41.7356C125.906 42.3543 127.558 42.6602 129.455 42.6602V42.2602ZM124.665 41.3697C123.33 40.7772 122.285 39.9546 121.524 38.904L121.2 39.1386C122.007 40.2528 123.111 41.1176 124.503 41.7354L124.665 41.3697ZM121.525 38.9048C120.772 37.8548 120.345 36.6337 120.245 35.2358L119.846 35.2642C119.951 36.7299 120.401 38.023 121.2 39.1378L121.525 38.9048ZM120.045 35.45H123.318V35.05H120.045V35.45ZM123.119 35.2672C123.207 36.2926 123.554 37.1534 124.166 37.8379L124.464 37.5712C123.918 36.9602 123.6 36.1847 123.517 35.2328L123.119 35.2672ZM124.168 37.84C124.78 38.5054 125.55 38.9998 126.473 39.325L126.606 38.9477C125.739 38.6422 125.026 38.1821 124.463 37.5691L124.168 37.84ZM126.475 39.3257C127.401 39.6402 128.395 39.7966 129.455 39.7966V39.3966C128.435 39.3966 127.485 39.2462 126.604 38.947L126.475 39.3257ZM129.455 39.7966C130.686 39.7966 131.799 39.597 132.79 39.1938L132.639 38.8233C131.704 39.2041 130.643 39.3966 129.455 39.3966V39.7966ZM132.791 39.1932C133.781 38.7816 134.573 38.2088 135.159 37.4711L134.846 37.2221C134.308 37.8992 133.574 38.4343 132.638 38.8239L132.791 39.1932ZM135.16 37.4702C135.752 36.7172 136.047 35.8379 136.047 34.8409H135.647C135.647 35.753 135.379 36.5441 134.846 37.223L135.16 37.4702ZM136.047 34.8409C136.047 33.9324 135.792 33.1746 135.267 32.5857L134.969 32.8518C135.416 33.3539 135.647 34.0108 135.647 34.8409H136.047ZM135.267 32.5857C134.759 32.0148 134.094 31.5559 133.279 31.2055L133.121 31.5729C133.892 31.9044 134.505 32.3318 134.969 32.8518L135.267 32.5857ZM133.279 31.2055C132.478 30.8607 131.612 30.5595 130.684 30.3016L130.577 30.687C131.49 30.9405 132.338 31.2359 133.121 31.5729L133.279 31.2055ZM130.686 30.302L127.464 29.3816L127.354 29.7662L130.576 30.6866L130.686 30.302ZM127.464 29.3816C125.44 28.7995 123.85 27.9724 122.686 26.9078L122.416 27.203C123.638 28.3202 125.288 29.1721 127.354 29.7661L127.464 29.3816ZM122.686 26.9078C121.538 25.8585 120.961 24.4865 120.961 22.7727H120.561C120.561 24.5874 121.178 26.0705 122.416 27.203L122.686 26.9078ZM120.961 22.7727C120.961 21.3452 121.346 20.1088 122.112 19.0551L121.788 18.8199C120.969 19.948 120.561 21.2685 120.561 22.7727H120.961ZM122.112 19.0553C122.891 17.9863 123.936 17.1552 125.254 16.5631L125.09 16.1983C123.714 16.8164 122.612 17.6898 121.789 18.8197L122.112 19.0553ZM125.254 16.5629C126.581 15.9623 128.065 15.6602 129.71 15.6602V15.2602C128.015 15.2602 126.473 15.5718 125.089 16.1985L125.254 16.5629ZM129.71 15.6602C131.374 15.6602 132.844 15.9584 134.126 16.5495L134.294 16.1863C132.951 15.5672 131.422 15.2602 129.71 15.2602V15.6602ZM134.127 16.55C135.413 17.1341 136.424 17.9319 137.169 18.9412L137.49 18.7037C136.701 17.6334 135.633 16.7949 134.293 16.1858L134.127 16.55ZM137.169 18.942C137.92 19.9484 138.316 21.0891 138.357 22.3701L138.757 22.3572C138.713 20.9961 138.29 19.7761 137.49 18.7029L137.169 18.942ZM138.557 22.1636H135.489V22.5636H138.557V22.1636ZM145.655 42V42.2H145.855V42H145.655ZM142.638 42H142.438V42.2H142.638V42ZM142.638 15.8182V15.6182H142.438V15.8182H142.638ZM145.655 15.8182H145.855V15.6182H145.655V15.8182ZM145.655 25.4318H145.455V25.6318H145.655V25.4318ZM145.911 25.4318V25.6318H146.04L146.093 25.5145L145.911 25.4318ZM147.982 23.0156L148.091 23.1835L148.091 23.1832L147.982 23.0156ZM155.205 22.9134L155.111 23.0898L155.112 23.0904L155.205 22.9134ZM157.545 25.3551L157.366 25.4451L157.367 25.4468L157.545 25.3551ZM158.388 42V42.2H158.588V42H158.388ZM155.371 42H155.171V42.2H155.371V42ZM154.157 26.1094L154.01 26.2456L154.012 26.2471L154.157 26.1094ZM148.161 25.4446L148.067 25.2681L148.066 25.2685L148.161 25.4446ZM146.32 27.2727L146.146 27.1745L146.145 27.1759L146.32 27.2727ZM145.455 30.1875V42H145.855V30.1875H145.455ZM145.655 41.8H142.638V42.2H145.655V41.8ZM142.838 42V15.8182H142.438V42H142.838ZM142.638 16.0182H145.655V15.6182H142.638V16.0182ZM145.455 15.8182V25.4318H145.855V15.8182H145.455ZM145.655 25.6318H145.911V25.2318H145.655V25.6318ZM146.093 25.5145C146.538 24.5345 147.203 23.7589 148.091 23.1835L147.873 22.8478C146.92 23.4655 146.205 24.3007 145.729 25.3492L146.093 25.5145ZM148.091 23.1832C148.977 22.606 150.171 22.308 151.69 22.308V21.908C150.123 21.908 148.845 22.215 147.873 22.848L148.091 23.1832ZM151.69 22.308C153 22.308 154.139 22.5708 155.111 23.0898L155.299 22.7369C154.26 22.182 153.055 21.908 151.69 21.908V22.308ZM155.112 23.0904C156.078 23.5978 156.829 24.3796 157.366 25.4451L157.723 25.2651C157.152 24.1317 156.344 23.2857 155.298 22.7363L155.112 23.0904ZM157.367 25.4468C157.91 26.5007 158.188 27.8558 158.188 29.5227H158.588C158.588 27.8147 158.304 26.3913 157.722 25.2635L157.367 25.4468ZM158.188 29.5227V42H158.588V29.5227H158.188ZM158.388 41.8H155.371V42.2H158.388V41.8ZM155.571 42V29.7273H155.171V42H155.571ZM155.571 29.7273C155.571 28.1335 155.157 26.8719 154.302 25.9716L154.012 26.2471C154.776 27.0514 155.171 28.2017 155.171 29.7273H155.571ZM154.303 25.9731C153.456 25.0633 152.286 24.6182 150.82 24.6182V25.0182C152.201 25.0182 153.255 25.4339 154.01 26.2456L154.303 25.9731ZM150.82 24.6182C149.803 24.6182 148.883 24.8334 148.067 25.2681L148.255 25.6211C149.007 25.2206 149.861 25.0182 150.82 25.0182V24.6182ZM148.066 25.2685C147.256 25.7049 146.615 26.3419 146.146 27.1745L146.494 27.371C146.928 26.6012 147.515 26.0196 148.256 25.6207L148.066 25.2685ZM146.145 27.1759C145.682 28.0132 145.455 29.0198 145.455 30.1875H145.855C145.855 29.0711 146.072 28.1346 146.495 27.3695L146.145 27.1759ZM166.139 41.1435L166.032 41.3123L166.032 41.3126L166.139 41.1435ZM163.02 37.6023L162.84 37.6901L162.84 37.6909L163.02 37.6023ZM163.02 26.9276L162.84 26.8393L162.84 26.8401L163.02 26.9276ZM166.139 23.3736L166.032 23.2044L166.032 23.2047L166.139 23.3736ZM175.459 23.3736L175.351 23.5424L175.352 23.5428L175.459 23.3736ZM178.578 26.9276L178.398 27.015L178.398 27.0158L178.578 26.9276ZM178.578 37.6023L178.399 37.5136L178.398 37.5144L178.578 37.6023ZM175.459 41.1435L175.352 40.9743L175.351 40.9746L175.459 41.1435ZM174.129 38.6634L174.005 38.5067L174.005 38.5067L174.129 38.6634ZM176.059 35.9403L176.247 36.0099L176.247 36.0099L176.059 35.9403ZM176.059 28.6151L176.247 28.5459L176.247 28.5459L176.059 28.6151ZM174.129 25.8665L174.254 25.7106L174.254 25.7106L174.129 25.8665ZM167.481 25.8665L167.356 25.7106L167.356 25.7106L167.481 25.8665ZM165.551 28.6151L165.363 28.5459L165.363 28.5459L165.551 28.6151ZM165.551 35.9403L165.363 36.0099L165.363 36.0099L165.551 35.9403ZM167.481 38.6634L167.606 38.5067L167.606 38.5067L167.481 38.6634ZM170.805 42.2091C169.066 42.2091 167.548 41.7955 166.246 40.9743L166.032 41.3126C167.406 42.1789 168.999 42.6091 170.805 42.6091V42.2091ZM166.246 40.9746C164.95 40.152 163.934 39.0004 163.199 37.5136L162.84 37.6909C163.605 39.2383 164.669 40.4475 166.032 41.3123L166.246 40.9746ZM163.199 37.5144C162.474 36.0297 162.107 34.2881 162.107 32.2841H161.707C161.707 34.3369 162.083 36.1407 162.84 37.6901L163.199 37.5144ZM162.107 32.2841C162.107 30.2628 162.474 28.5083 163.2 27.015L162.84 26.8401C162.083 28.398 161.707 30.2145 161.707 32.2841H162.107ZM163.199 27.0158C163.934 25.5205 164.95 24.3649 166.246 23.5424L166.032 23.2047C164.669 24.0697 163.605 25.2835 162.84 26.8393L163.199 27.0158ZM166.246 23.5428C167.548 22.7215 169.066 22.308 170.805 22.308V21.908C168.999 21.908 167.406 22.3382 166.032 23.2044L166.246 23.5428ZM170.805 22.308C172.545 22.308 174.058 22.7215 175.351 23.5424L175.566 23.2047C174.2 22.3381 172.611 21.908 170.805 21.908V22.308ZM175.352 23.5428C176.656 24.3652 177.672 25.5204 178.398 27.015L178.758 26.8401C178.001 25.2835 176.937 24.0695 175.565 23.2044L175.352 23.5428ZM178.398 27.0158C179.132 28.5089 179.503 30.2631 179.503 32.2841H179.903C179.903 30.2142 179.523 28.3974 178.757 26.8393L178.398 27.0158ZM179.503 32.2841C179.503 34.2878 179.133 36.0291 178.399 37.5136L178.757 37.6909C179.523 36.1414 179.903 34.3372 179.903 32.2841H179.503ZM178.398 37.5144C177.672 39.0005 176.656 40.1517 175.352 40.9743L175.565 41.3126C176.937 40.4477 178.001 39.2382 178.758 37.6901L178.398 37.5144ZM175.351 40.9746C174.058 41.7955 172.545 42.2091 170.805 42.2091V42.6091C172.611 42.6091 174.2 42.1789 175.566 41.3123L175.351 40.9746ZM170.805 39.8989C172.187 39.8989 173.342 39.544 174.253 38.82L174.005 38.5067C173.178 39.1634 172.117 39.4989 170.805 39.4989V39.8989ZM174.253 38.82C175.154 38.1051 175.818 37.1663 176.247 36.0099L175.872 35.8707C175.466 36.9644 174.843 37.8409 174.005 38.5067L174.253 38.82ZM176.247 36.0099C176.674 34.8607 176.886 33.6181 176.886 32.2841H176.486C176.486 33.5751 176.281 34.77 175.872 35.8707L176.247 36.0099ZM176.886 32.2841C176.886 30.95 176.674 29.7034 176.247 28.5459L175.872 28.6842C176.281 29.7937 176.486 30.9931 176.486 32.2841H176.886ZM176.247 28.5459C175.818 27.3813 175.154 26.4341 174.254 25.7106L174.004 26.0224C174.842 26.6966 175.466 27.5818 175.872 28.6842L176.247 28.5459ZM174.254 25.7106C173.343 24.9776 172.188 24.6182 170.805 24.6182V25.0182C172.116 25.0182 173.177 25.3576 174.004 26.0224L174.254 25.7106ZM170.805 24.6182C169.423 24.6182 168.268 24.9776 167.356 25.7106L167.607 26.0224C168.434 25.3576 169.494 25.0182 170.805 25.0182V24.6182ZM167.356 25.7106C166.456 26.4341 165.792 27.3813 165.363 28.5459L165.739 28.6842C166.145 27.5818 166.768 26.6966 167.607 26.0224L167.356 25.7106ZM165.363 28.5459C164.937 29.7034 164.725 30.95 164.725 32.2841H165.125C165.125 30.9931 165.33 29.7937 165.739 28.6842L165.363 28.5459ZM164.725 32.2841C164.725 33.6181 164.937 34.8607 165.363 36.0099L165.738 35.8707C165.33 34.77 165.125 33.5751 165.125 32.2841H164.725ZM165.363 36.0099C165.793 37.1663 166.457 38.1051 167.357 38.82L167.606 38.5067C166.767 37.8409 166.144 36.9644 165.738 35.8707L165.363 36.0099ZM167.357 38.82C168.269 39.544 169.423 39.8989 170.805 39.8989V39.4989C169.494 39.4989 168.433 39.1634 167.606 38.5067L167.357 38.82ZM183.228 49.3636H183.028V49.5636H183.228V49.3636ZM183.228 22.3636V22.1636H183.028V22.3636H183.228ZM186.143 22.3636H186.343V22.1636H186.143V22.3636ZM186.143 25.483H185.943V25.683H186.143V25.483ZM186.501 25.483V25.683H186.61L186.669 25.592L186.501 25.483ZM187.422 24.179L187.261 24.0594L187.261 24.0598L187.422 24.179ZM189.135 22.7472L189.233 22.9214L189.233 22.9211L189.135 22.7472ZM196.549 23.348L196.659 23.1807L196.659 23.1807L196.549 23.348ZM199.503 26.8636L199.684 26.7791L199.684 26.7791L199.503 26.8636ZM199.503 37.6406L199.684 37.7251L199.684 37.7248L199.503 37.6406ZM196.562 41.169L196.672 41.336L196.673 41.3354L196.562 41.169ZM189.199 41.7827L189.101 41.957L189.102 41.9579L189.199 41.7827ZM187.447 40.3381L187.287 40.4581L187.288 40.4593L187.447 40.3381ZM186.501 38.983L186.671 38.8777L186.613 38.783H186.501V38.983ZM186.245 38.983V38.783H186.045V38.983H186.245ZM186.245 49.3636V49.5636H186.445V49.3636H186.245ZM186.846 36.1065L186.66 36.1781L186.66 36.1786L186.846 36.1065ZM188.751 38.7528L188.63 38.9117L188.631 38.9124L188.751 38.7528ZM194.977 38.7017L195.101 38.8588L195.101 38.8586L194.977 38.7017ZM196.895 35.9915L196.708 35.9203L196.707 35.9211L196.895 35.9915ZM196.907 28.4489L196.72 28.5189L196.721 28.5207L196.907 28.4489ZM195.003 25.8026L194.88 25.9604L194.882 25.9618L195.003 25.8026ZM188.726 25.7514L188.844 25.9126L188.845 25.9118L188.726 25.7514ZM186.834 28.3338L187.02 28.4061L187.02 28.4056L186.834 28.3338ZM183.428 49.3636V22.3636H183.028V49.3636H183.428ZM183.228 22.5636H186.143V22.1636H183.228V22.5636ZM185.943 22.3636V25.483H186.343V22.3636H185.943ZM186.143 25.683H186.501V25.283H186.143V25.683ZM186.669 25.592C186.887 25.2559 187.191 24.825 187.582 24.2981L187.261 24.0598C186.868 24.5898 186.558 25.0281 186.333 25.374L186.669 25.592ZM187.582 24.2986C187.962 23.7892 188.509 23.3289 189.233 22.9214L189.036 22.5729C188.277 23.0006 187.682 23.4949 187.261 24.0594L187.582 24.2986ZM189.233 22.9211C189.942 22.5183 190.918 22.308 192.177 22.308V21.908C190.88 21.908 189.827 22.1237 189.036 22.5733L189.233 22.9211ZM192.177 22.308C193.796 22.308 195.214 22.712 196.44 23.5153L196.659 23.1807C195.362 22.3306 193.866 21.908 192.177 21.908V22.308ZM196.44 23.5153C197.667 24.3194 198.628 25.461 199.321 26.9482L199.684 26.7791C198.962 25.2322 197.955 24.03 196.659 23.1807L196.44 23.5153ZM199.321 26.9482C200.014 28.4333 200.364 30.193 200.364 32.233H200.764C200.764 30.1479 200.406 28.328 199.684 26.7791L199.321 26.9482ZM200.364 32.233C200.364 34.2901 200.014 36.0628 199.321 37.5565L199.684 37.7248C200.406 36.1674 200.764 34.3349 200.764 32.233H200.364ZM199.321 37.5561C198.628 39.0437 197.67 40.1899 196.451 41.0026L196.673 41.3354C197.96 40.4777 198.963 39.2716 199.684 37.7251L199.321 37.5561ZM196.452 41.0021C195.235 41.8053 193.829 42.2091 192.228 42.2091V42.6091C193.9 42.6091 195.384 42.1862 196.672 41.336L196.452 41.0021ZM192.228 42.2091C190.986 42.2091 190.014 42.0031 189.295 41.6075L189.102 41.9579C189.901 42.3975 190.948 42.6091 192.228 42.6091V42.2091ZM189.297 41.6083C188.555 41.1918 187.995 40.7268 187.606 40.2169L187.288 40.4593C187.718 41.0232 188.325 41.5212 189.101 41.957L189.297 41.6083ZM187.607 40.2181C187.2 39.6749 186.888 39.2285 186.671 38.8777L186.331 39.0882C186.557 39.4533 186.876 39.9104 187.287 40.4581L187.607 40.2181ZM186.501 38.783H186.245V39.183H186.501V38.783ZM186.045 38.983V49.3636H186.445V38.983H186.045ZM186.245 49.1636H183.228V49.5636H186.245V49.1636ZM185.994 32.1818C185.994 33.684 186.214 35.0173 186.66 36.1781L187.033 36.0349C186.609 34.9287 186.394 33.6455 186.394 32.1818H185.994ZM186.66 36.1786C187.106 37.3328 187.761 38.247 188.63 38.9117L188.873 38.594C188.071 37.9803 187.456 37.1302 187.033 36.0345L186.66 36.1786ZM188.631 38.9124C189.506 39.5733 190.573 39.8989 191.819 39.8989V39.4989C190.645 39.4989 189.667 39.1937 188.872 38.5932L188.631 38.9124ZM191.819 39.8989C193.117 39.8989 194.216 39.556 195.101 38.8588L194.853 38.5446C194.051 39.1769 193.044 39.4989 191.819 39.4989V39.8989ZM195.101 38.8586C195.985 38.1603 196.644 37.2254 197.082 36.0619L196.707 35.9211C196.293 37.0246 195.674 37.8966 194.853 38.5448L195.101 38.8586ZM197.082 36.0626C197.526 34.8948 197.747 33.6004 197.747 32.1818H197.347C197.347 33.5587 197.133 34.804 196.708 35.9203L197.082 36.0626ZM197.747 32.1818C197.747 30.7805 197.53 29.5113 197.094 28.3771L196.721 28.5207C197.137 29.6023 197.347 30.8217 197.347 32.1818H197.747ZM197.095 28.3788C196.665 27.2311 196.009 26.3165 195.124 25.6433L194.882 25.9618C195.7 26.5841 196.314 27.4337 196.72 28.5189L197.095 28.3788ZM195.125 25.6447C194.24 24.9561 193.133 24.6182 191.819 24.6182V25.0182C193.062 25.0182 194.078 25.3365 194.88 25.9604L195.125 25.6447ZM191.819 24.6182C190.557 24.6182 189.482 24.9388 188.606 25.591L188.845 25.9118C189.64 25.3197 190.627 25.0182 191.819 25.0182V24.6182ZM188.607 25.5902C187.737 26.2297 187.085 27.1237 186.647 28.262L187.02 28.4056C187.435 27.328 188.044 26.5004 188.844 25.9126L188.607 25.5902ZM186.647 28.2615C186.21 29.3889 185.994 30.697 185.994 32.1818H186.394C186.394 30.7348 186.605 29.4776 187.02 28.4061L186.647 28.2615Z" fill="white"/>
<path d="M70.6165 53V47.9091H72.3963C72.7509 47.9091 73.0434 47.9704 73.2738 48.093C73.5041 48.214 73.6757 48.3772 73.7884 48.5827C73.901 48.7866 73.9574 49.0128 73.9574 49.2614C73.9574 49.4801 73.9184 49.6607 73.8406 49.8033C73.7643 49.9458 73.6632 50.0585 73.5373 50.1413C73.413 50.2242 73.2779 50.2855 73.1321 50.3253V50.375C73.2879 50.3849 73.4445 50.4396 73.6019 50.5391C73.7594 50.6385 73.8911 50.781 73.9972 50.9666C74.1032 51.1522 74.1562 51.3793 74.1562 51.6477C74.1562 51.9029 74.0982 52.1325 73.9822 52.3363C73.8662 52.5401 73.6831 52.7017 73.4329 52.821C73.1826 52.9403 72.857 53 72.456 53H70.6165ZM71.233 52.4531H72.456C72.8587 52.4531 73.1445 52.3752 73.3136 52.2195C73.4843 52.062 73.5696 51.8714 73.5696 51.6477C73.5696 51.4754 73.5257 51.3163 73.4379 51.1705C73.35 51.023 73.2249 50.9053 73.0625 50.8175C72.9001 50.728 72.7079 50.6832 72.4858 50.6832H71.233V52.4531ZM71.233 50.1463H72.3764C72.562 50.1463 72.7294 50.1098 72.8786 50.0369C73.0294 49.964 73.1487 49.8613 73.2365 49.7287C73.326 49.5961 73.3707 49.4403 73.3707 49.2614C73.3707 49.0376 73.2929 48.8479 73.1371 48.6921C72.9813 48.5347 72.7344 48.456 72.3963 48.456H71.233V50.1463ZM79.0001 47.9091H79.6166V51.2798C79.6166 51.6278 79.5346 51.9386 79.3705 52.212C79.2081 52.4838 78.9786 52.6984 78.6819 52.8558C78.3853 53.0116 78.0373 53.0895 77.6379 53.0895C77.2385 53.0895 76.8905 53.0116 76.5939 52.8558C76.2972 52.6984 76.0669 52.4838 75.9028 52.212C75.7404 51.9386 75.6592 51.6278 75.6592 51.2798V47.9091H76.2757V51.2301C76.2757 51.4787 76.3304 51.6999 76.4398 51.8938C76.5491 52.0861 76.7049 52.2377 76.9071 52.3487C77.1109 52.4581 77.3545 52.5128 77.6379 52.5128C77.9213 52.5128 78.1649 52.4581 78.3687 52.3487C78.5726 52.2377 78.7283 52.0861 78.8361 51.8938C78.9454 51.6999 79.0001 51.4787 79.0001 51.2301V47.9091ZM80.9002 47.9091H81.6062L83.0181 50.2855H83.0777L84.4897 47.9091H85.1956L83.3562 50.902V53H82.7397V50.902L80.9002 47.9091ZM89.2897 51.2202C89.1671 51.2202 89.0619 51.1763 88.974 51.0884C88.8862 51.0006 88.8423 50.8954 88.8423 50.7727C88.8423 50.6501 88.8862 50.5449 88.974 50.457C89.0619 50.3692 89.1671 50.3253 89.2897 50.3253C89.4124 50.3253 89.5176 50.3692 89.6054 50.457C89.6932 50.5449 89.7372 50.6501 89.7372 50.7727C89.7372 50.8539 89.7165 50.9285 89.675 50.9964C89.6352 51.0644 89.5814 51.1191 89.5134 51.1605C89.4472 51.2003 89.3726 51.2202 89.2897 51.2202ZM96.6023 49.1818C96.5725 48.9299 96.4515 48.7344 96.2394 48.5952C96.0272 48.456 95.7671 48.3864 95.4588 48.3864C95.2334 48.3864 95.0362 48.4228 94.8672 48.4957C94.6998 48.5687 94.5689 48.6689 94.4744 48.7965C94.3816 48.9241 94.3352 49.0691 94.3352 49.2315C94.3352 49.3674 94.3676 49.4843 94.4322 49.582C94.4985 49.6781 94.583 49.7585 94.6857 49.8232C94.7885 49.8861 94.8962 49.9383 95.0089 49.9798C95.1216 50.0195 95.2252 50.0518 95.3196 50.0767L95.8367 50.2159C95.9692 50.2507 96.1167 50.2988 96.2791 50.3601C96.4432 50.4214 96.5998 50.5051 96.7489 50.6112C96.8998 50.7156 97.024 50.8498 97.1218 51.0138C97.2196 51.1779 97.2685 51.3793 97.2685 51.6179C97.2685 51.893 97.1964 52.1416 97.0522 52.3636C96.9097 52.5857 96.7009 52.7622 96.4258 52.8931C96.1524 53.024 95.8201 53.0895 95.429 53.0895C95.0644 53.0895 94.7487 53.0307 94.4819 52.913C94.2168 52.7953 94.0079 52.6313 93.8555 52.4208C93.7047 52.2103 93.6193 51.9659 93.5994 51.6875H94.2358C94.2524 51.8797 94.317 52.0388 94.4297 52.1648C94.544 52.2891 94.6882 52.3819 94.8622 52.4432C95.0379 52.5028 95.2268 52.5327 95.429 52.5327C95.6643 52.5327 95.8756 52.4946 96.0629 52.4183C96.2501 52.3404 96.3985 52.2327 96.5078 52.0952C96.6172 51.956 96.6719 51.7936 96.6719 51.608C96.6719 51.4389 96.6247 51.3014 96.5302 51.1953C96.4357 51.0893 96.3114 51.0031 96.1573 50.9368C96.0032 50.8705 95.8367 50.8125 95.6577 50.7628L95.0313 50.5838C94.6335 50.4695 94.3187 50.3062 94.0867 50.0941C93.8547 49.882 93.7387 49.6044 93.7387 49.2614C93.7387 48.9763 93.8157 48.7277 93.9698 48.5156C94.1256 48.3018 94.3344 48.1361 94.5963 48.0185C94.8597 47.8991 95.1539 47.8395 95.4787 47.8395C95.8068 47.8395 96.0985 47.8983 96.3537 48.016C96.6089 48.132 96.8111 48.2911 96.9602 48.4933C97.111 48.6954 97.1906 48.925 97.1989 49.1818H96.6023ZM98.7721 53V47.9091H101.845V48.456H99.3885V50.1761H101.685V50.723H99.3885V52.4531H101.884V53H98.7721ZM103.446 53V47.9091H104.062V52.4531H106.429V53H103.446ZM107.873 53V47.9091H108.49V52.4531H110.856V53H107.873ZM115.107 51.2202C114.985 51.2202 114.88 51.1763 114.792 51.0884C114.704 51.0006 114.66 50.8954 114.66 50.7727C114.66 50.6501 114.704 50.5449 114.792 50.457C114.88 50.3692 114.985 50.3253 115.107 50.3253C115.23 50.3253 115.335 50.3692 115.423 50.457C115.511 50.5449 115.555 50.6501 115.555 50.7727C115.555 50.8539 115.534 50.9285 115.493 50.9964C115.453 51.0644 115.399 51.1191 115.331 51.1605C115.265 51.2003 115.19 51.2202 115.107 51.2202ZM119.636 53V47.9091H121.356C121.754 47.9091 122.08 47.977 122.335 48.1129C122.591 48.2472 122.78 48.4319 122.902 48.6673C123.025 48.9026 123.086 49.1702 123.086 49.4702C123.086 49.7701 123.025 50.0361 122.902 50.2681C122.78 50.5001 122.592 50.6824 122.338 50.815C122.084 50.9459 121.76 51.0114 121.366 51.0114H119.974V50.4545H121.346C121.618 50.4545 121.837 50.4148 122.002 50.3352C122.17 50.2557 122.291 50.143 122.365 49.9972C122.442 49.8497 122.48 49.674 122.48 49.4702C122.48 49.2663 122.442 49.0882 122.365 48.9357C122.289 48.7833 122.167 48.6656 122 48.5827C121.833 48.4982 121.611 48.456 121.336 48.456H120.252V53H119.636ZM122.032 50.7131L123.285 53H122.569L121.336 50.7131H122.032ZM124.603 53V47.9091H127.676V48.456H125.22V50.1761H127.517V50.723H125.22V52.4531H127.716V53H124.603ZM129.277 53V47.9091H130.997C131.397 47.9091 131.723 47.9812 131.977 48.1254C132.232 48.2679 132.421 48.4609 132.543 48.7045C132.666 48.9482 132.727 49.2199 132.727 49.5199C132.727 49.8198 132.666 50.0924 132.543 50.3377C132.422 50.583 132.235 50.7785 131.982 50.9244C131.728 51.0685 131.403 51.1406 131.007 51.1406H129.774V50.5938H130.987C131.261 50.5938 131.48 50.5465 131.646 50.4521C131.812 50.3576 131.932 50.23 132.006 50.0692C132.083 49.9068 132.121 49.7237 132.121 49.5199C132.121 49.3161 132.083 49.1338 132.006 48.973C131.932 48.8123 131.811 48.6863 131.643 48.5952C131.476 48.5024 131.254 48.456 130.977 48.456H129.893V53H129.277ZM133.9 53H133.253L135.123 47.9091H135.759L137.628 53H136.982L135.461 48.7145H135.421L133.9 53ZM134.138 51.0114H136.743V51.5582H134.138V51.0114ZM139.528 47.9091V53H138.911V47.9091H139.528ZM141.254 53V47.9091H142.974C143.372 47.9091 143.698 47.977 143.953 48.1129C144.209 48.2472 144.398 48.4319 144.52 48.6673C144.643 48.9026 144.704 49.1702 144.704 49.4702C144.704 49.7701 144.643 50.0361 144.52 50.2681C144.398 50.5001 144.209 50.6824 143.956 50.815C143.702 50.9459 143.378 51.0114 142.984 51.0114H141.592V50.4545H142.964C143.236 50.4545 143.455 50.4148 143.62 50.3352C143.788 50.2557 143.909 50.143 143.983 49.9972C144.059 49.8497 144.098 49.674 144.098 49.4702C144.098 49.2663 144.059 49.0882 143.983 48.9357C143.907 48.7833 143.785 48.6656 143.618 48.5827C143.45 48.4982 143.229 48.456 142.954 48.456H141.87V53H141.254ZM143.65 50.7131L144.903 53H144.187L142.954 50.7131H143.65Z" fill="white"/>
<path d="M70.6165 53H70.3165V53.3H70.6165V53ZM70.6165 47.9091V47.6091H70.3165V47.9091H70.6165ZM73.2738 48.093L73.1328 48.3579L73.1343 48.3586L73.2738 48.093ZM73.7884 48.5827L73.5253 48.727L73.5258 48.7279L73.7884 48.5827ZM73.8406 49.8033L73.5773 49.6594L73.576 49.6618L73.8406 49.8033ZM73.5373 50.1413L73.3724 49.8907L73.3709 49.8917L73.5373 50.1413ZM73.1321 50.3253L73.0532 50.0359L72.8321 50.0961V50.3253H73.1321ZM73.1321 50.375H72.8321V50.6565L73.113 50.6744L73.1321 50.375ZM73.6019 50.5391L73.4417 50.7927L73.4417 50.7927L73.6019 50.5391ZM73.9822 52.3363L74.243 52.4847L74.243 52.4847L73.9822 52.3363ZM73.4329 52.821L73.3038 52.5502L73.3038 52.5502L73.4329 52.821ZM71.233 52.4531H70.933V52.7531H71.233V52.4531ZM73.3136 52.2195L73.5169 52.4401L73.517 52.44L73.3136 52.2195ZM73.4379 51.1705L73.1801 51.324L73.1809 51.3252L73.4379 51.1705ZM73.0625 50.8175L72.9177 51.0802L72.9198 51.0814L73.0625 50.8175ZM71.233 50.6832V50.3832H70.933V50.6832H71.233ZM71.233 50.1463H70.933V50.4463H71.233V50.1463ZM72.8786 50.0369L72.748 49.7668L72.7468 49.7674L72.8786 50.0369ZM73.2365 49.7287L72.9878 49.5608L72.9864 49.563L73.2365 49.7287ZM73.1371 48.6921L72.9238 48.9031L72.9249 48.9042L73.1371 48.6921ZM71.233 48.456V48.156H70.933V48.456H71.233ZM70.9165 53V47.9091H70.3165V53H70.9165ZM70.6165 48.2091H72.3963V47.6091H70.6165V48.2091ZM72.3963 48.2091C72.7186 48.2091 72.9586 48.2651 73.1328 48.3579L73.4148 47.8282C73.1283 47.6757 72.7833 47.6091 72.3963 47.6091V48.2091ZM73.1343 48.3586C73.3184 48.4553 73.4441 48.5788 73.5253 48.727L74.0514 48.4385C73.9073 48.1757 73.6899 47.9727 73.4133 47.8274L73.1343 48.3586ZM73.5258 48.7279C73.6123 48.8843 73.6574 49.06 73.6574 49.2614H74.2574C74.2574 48.9655 74.1898 48.6888 74.0509 48.4376L73.5258 48.7279ZM73.6574 49.2614C73.6574 49.4466 73.6242 49.5737 73.5773 49.6594L74.1038 49.9471C74.2127 49.7478 74.2574 49.5137 74.2574 49.2614H73.6574ZM73.576 49.6618C73.5216 49.7634 73.4536 49.8373 73.3724 49.8907L73.7022 50.392C73.8729 50.2796 74.007 50.1281 74.1051 49.9448L73.576 49.6618ZM73.3709 49.8917C73.2737 49.9565 73.1683 50.0045 73.0532 50.0359L73.211 50.6147C73.3876 50.5666 73.5523 50.4919 73.7037 50.391L73.3709 49.8917ZM72.8321 50.3253V50.375H73.4321V50.3253H72.8321ZM73.113 50.6744C73.2098 50.6806 73.3186 50.7149 73.4417 50.7927L73.7621 50.2854C73.5704 50.1643 73.3659 50.0893 73.1512 50.0756L73.113 50.6744ZM73.4417 50.7927C73.5519 50.8623 73.6513 50.9661 73.7367 51.1155L74.2576 50.8178C74.1309 50.5959 73.9668 50.4147 73.7621 50.2854L73.4417 50.7927ZM73.7367 51.1155C73.811 51.2455 73.8562 51.4183 73.8562 51.6477H74.4563C74.4563 51.3402 74.3954 51.0589 74.2576 50.8178L73.7367 51.1155ZM73.8562 51.6477C73.8562 51.8556 73.8095 52.0332 73.7215 52.1879L74.243 52.4847C74.387 52.2317 74.4563 51.9502 74.4563 51.6477H73.8562ZM73.7215 52.1879C73.641 52.3293 73.509 52.4524 73.3038 52.5502L73.562 53.0918C73.8573 52.951 74.0914 52.751 74.243 52.4847L73.7215 52.1879ZM73.3038 52.5502C73.1077 52.6437 72.8308 52.7 72.456 52.7V53.3C72.8832 53.3 73.2576 53.237 73.562 53.0918L73.3038 52.5502ZM72.456 52.7H70.6165V53.3H72.456V52.7ZM71.233 52.7531H72.456V52.1531H71.233V52.7531ZM72.456 52.7531C72.8822 52.7531 73.2635 52.6736 73.5169 52.4401L73.1103 51.9989C73.0256 52.0769 72.8351 52.1531 72.456 52.1531V52.7531ZM73.517 52.44C73.7466 52.2282 73.8696 51.9587 73.8696 51.6477H73.2696C73.2696 51.7841 73.2219 51.8959 73.1102 51.9989L73.517 52.44ZM73.8696 51.6477C73.8696 51.4215 73.8112 51.2088 73.6948 51.0157L73.1809 51.3252C73.2402 51.4237 73.2696 51.5292 73.2696 51.6477H73.8696ZM73.6956 51.017C73.578 50.8195 73.4115 50.6651 73.2052 50.5536L72.9198 51.0814C73.0383 51.1455 73.122 51.2265 73.1801 51.324L73.6956 51.017ZM73.2073 50.5547C72.9925 50.4364 72.7485 50.3832 72.4858 50.3832V50.9832C72.6672 50.9832 72.8076 51.0196 72.9177 51.0802L73.2073 50.5547ZM72.4858 50.3832H71.233V50.9832H72.4858V50.3832ZM70.933 50.6832V52.4531H71.533V50.6832H70.933ZM71.233 50.4463H72.3764V49.8463H71.233V50.4463ZM72.3764 50.4463C72.6023 50.4463 72.8155 50.4017 73.0103 50.3064L72.7468 49.7674C72.6433 49.818 72.5218 49.8463 72.3764 49.8463V50.4463ZM73.0091 50.307C73.2057 50.212 73.3674 50.0743 73.4866 49.8944L72.9864 49.563C72.9299 49.6483 72.853 49.7161 72.748 49.7668L73.0091 50.307ZM73.4852 49.8965C73.612 49.7086 73.6707 49.4928 73.6707 49.2614H73.0707C73.0707 49.3879 73.04 49.4836 72.9879 49.5609L73.4852 49.8965ZM73.6707 49.2614C73.6707 48.9595 73.5622 48.693 73.3492 48.48L72.9249 48.9042C73.0235 49.0028 73.0707 49.1158 73.0707 49.2614H73.6707ZM73.3503 48.4811C73.1145 48.2428 72.773 48.156 72.3963 48.156V48.756C72.6957 48.756 72.8481 48.8266 72.9238 48.9031L73.3503 48.4811ZM72.3963 48.156H71.233V48.756H72.3963V48.156ZM70.933 48.456V50.1463H71.533V48.456H70.933ZM79.0001 47.9091V47.6091H78.7001V47.9091H79.0001ZM79.6166 47.9091H79.9166V47.6091H79.6166V47.9091ZM79.3705 52.212L79.1133 52.0577L79.113 52.0581L79.3705 52.212ZM78.6819 52.8558L78.8214 53.1214L78.8226 53.1208L78.6819 52.8558ZM76.5939 52.8558L76.4532 53.1208L76.4544 53.1214L76.5939 52.8558ZM75.9028 52.212L75.6449 52.3652L75.646 52.367L75.9028 52.212ZM75.6592 47.9091V47.6091H75.3592V47.9091H75.6592ZM76.2757 47.9091H76.5757V47.6091H76.2757V47.9091ZM76.4398 51.8938L76.1785 52.0412L76.179 52.0422L76.4398 51.8938ZM76.9071 52.3487L76.7627 52.6117L76.7652 52.6131L76.9071 52.3487ZM78.3687 52.3487L78.5106 52.6131L78.5122 52.6122L78.3687 52.3487ZM78.8361 51.8938L78.5748 51.7464L78.5743 51.7472L78.8361 51.8938ZM79.0001 48.2091H79.6166V47.6091H79.0001V48.2091ZM79.3166 47.9091V51.2798H79.9166V47.9091H79.3166ZM79.3166 51.2798C79.3166 51.5786 79.2468 51.8351 79.1133 52.0577L79.6278 52.3664C79.8223 52.0421 79.9166 51.6771 79.9166 51.2798H79.3166ZM79.113 52.0581C78.9804 52.28 78.7926 52.4574 78.5413 52.5908L78.8226 53.1208C79.1645 52.9393 79.4358 52.6876 79.628 52.3659L79.113 52.0581ZM78.5425 52.5902C78.2964 52.7194 77.998 52.7895 77.6379 52.7895V53.3895C78.0766 53.3895 78.4742 53.3038 78.8214 53.1214L78.5425 52.5902ZM77.6379 52.7895C77.2778 52.7895 76.9794 52.7194 76.7333 52.5902L76.4544 53.1214C76.8016 53.3038 77.1992 53.3895 77.6379 53.3895V52.7895ZM76.7345 52.5908C76.4829 52.4573 76.294 52.2795 76.1597 52.057L75.646 52.367C75.8398 52.688 76.1115 52.9395 76.4532 53.1208L76.7345 52.5908ZM76.1608 52.0588C76.0284 51.836 75.9592 51.5792 75.9592 51.2798H75.3592C75.3592 51.6765 75.4524 52.0411 75.6449 52.3652L76.1608 52.0588ZM75.9592 51.2798V47.9091H75.3592V51.2798H75.9592ZM75.6592 48.2091H76.2757V47.6091H75.6592V48.2091ZM75.9757 47.9091V51.2301H76.5757V47.9091H75.9757ZM75.9757 51.2301C75.9757 51.5242 76.0408 51.7973 76.1785 52.0412L76.701 51.7464C76.6199 51.6026 76.5757 51.4332 76.5757 51.2301H75.9757ZM76.179 52.0422C76.317 52.2848 76.514 52.4751 76.7627 52.6117L77.0515 52.0858C76.8958 52.0002 76.7812 51.8874 76.7005 51.7455L76.179 52.0422ZM76.7652 52.6131C77.0215 52.7506 77.316 52.8128 77.6379 52.8128V52.2128C77.393 52.2128 77.2004 52.1656 77.0489 52.0844L76.7652 52.6131ZM77.6379 52.8128C77.9598 52.8128 78.2544 52.7506 78.5106 52.6131L78.2269 52.0844C78.0754 52.1656 77.8828 52.2128 77.6379 52.2128V52.8128ZM78.5122 52.6122C78.7629 52.4756 78.9609 52.2847 79.0978 52.0405L78.5743 51.7472C78.4957 51.8874 78.3822 51.9998 78.2252 52.0853L78.5122 52.6122ZM79.0974 52.0412C79.235 51.7973 79.3001 51.5242 79.3001 51.2301H78.7001C78.7001 51.4332 78.6559 51.6026 78.5748 51.7464L79.0974 52.0412ZM79.3001 51.2301V47.9091H78.7001V51.2301H79.3001ZM80.9002 47.9091V47.6091H80.3637L80.6446 48.0662L80.9002 47.9091ZM81.6062 47.9091L81.8641 47.7559L81.7769 47.6091H81.6062V47.9091ZM83.0181 50.2855L82.7602 50.4387L82.8474 50.5855H83.0181V50.2855ZM83.0777 50.2855V50.5855H83.2485L83.3357 50.4387L83.0777 50.2855ZM84.4897 47.9091V47.6091H84.319L84.2318 47.7559L84.4897 47.9091ZM85.1956 47.9091L85.4512 48.0662L85.7322 47.6091H85.1956V47.9091ZM83.3562 50.902L83.1006 50.7449L83.0562 50.8172V50.902H83.3562ZM83.3562 53V53.3H83.6562V53H83.3562ZM82.7397 53H82.4397V53.3H82.7397V53ZM82.7397 50.902H83.0397V50.8172L82.9953 50.7449L82.7397 50.902ZM80.9002 48.2091H81.6062V47.6091H80.9002V48.2091ZM81.3482 48.0623L82.7602 50.4387L83.276 50.1323L81.8641 47.7559L81.3482 48.0623ZM83.0181 50.5855H83.0777V49.9855H83.0181V50.5855ZM83.3357 50.4387L84.7476 48.0623L84.2318 47.7559L82.8198 50.1323L83.3357 50.4387ZM84.4897 48.2091H85.1956V47.6091H84.4897V48.2091ZM84.9401 47.752L83.1006 50.7449L83.6117 51.0591L85.4512 48.0662L84.9401 47.752ZM83.0562 50.902V53H83.6562V50.902H83.0562ZM83.3562 52.7H82.7397V53.3H83.3562V52.7ZM83.0397 53V50.902H82.4397V53H83.0397ZM82.9953 50.7449L81.1558 47.752L80.6446 48.0662L82.4841 51.0591L82.9953 50.7449ZM88.974 51.0884L89.1862 50.8763L89.1862 50.8763L88.974 51.0884ZM88.974 50.457L89.1862 50.6692L89.1862 50.6692L88.974 50.457ZM89.6054 50.457L89.3933 50.6692L89.3933 50.6692L89.6054 50.457ZM89.675 50.9964L89.4188 50.8402L89.4161 50.8449L89.675 50.9964ZM89.5134 51.1605L89.6678 51.4178L89.6696 51.4167L89.5134 51.1605ZM89.2897 50.9202C89.2478 50.9202 89.2185 50.9087 89.1862 50.8763L88.7619 51.3006C88.9052 51.4438 89.0864 51.5202 89.2897 51.5202V50.9202ZM89.1862 50.8763C89.1538 50.8439 89.1423 50.8147 89.1423 50.7727H88.5423C88.5423 50.9761 88.6186 51.1573 88.7619 51.3006L89.1862 50.8763ZM89.1423 50.7727C89.1423 50.7308 89.1538 50.7015 89.1862 50.6692L88.7619 50.2449C88.6186 50.3882 88.5423 50.5694 88.5423 50.7727H89.1423ZM89.1862 50.6692C89.2185 50.6368 89.2478 50.6253 89.2897 50.6253V50.0253C89.0864 50.0253 88.9052 50.1016 88.7619 50.2449L89.1862 50.6692ZM89.2897 50.6253C89.3316 50.6253 89.3609 50.6368 89.3933 50.6692L89.8176 50.2449C89.6743 50.1016 89.4931 50.0253 89.2897 50.0253V50.6253ZM89.3933 50.6692C89.4257 50.7015 89.4372 50.7308 89.4372 50.7727H90.0372C90.0372 50.5694 89.9608 50.3882 89.8176 50.2449L89.3933 50.6692ZM89.4372 50.7727C89.4372 50.8 89.431 50.8204 89.4189 50.8403L89.9312 51.1526C90.0019 51.0366 90.0372 50.9078 90.0372 50.7727H89.4372ZM89.4161 50.8449C89.4017 50.8695 89.3833 50.8885 89.3573 50.9044L89.6696 51.4167C89.7795 51.3497 89.8688 51.2592 89.9339 51.148L89.4161 50.8449ZM89.3591 50.9033C89.3428 50.913 89.3223 50.9202 89.2897 50.9202V51.5202C89.4229 51.5202 89.5515 51.4875 89.6678 51.4178L89.3591 50.9033ZM96.6023 49.1818L96.3044 49.2171L96.3357 49.4818H96.6023V49.1818ZM96.2394 48.5952L96.0748 48.846L96.0748 48.846L96.2394 48.5952ZM94.8672 48.4957L94.7484 48.2203L94.7474 48.2207L94.8672 48.4957ZM94.4744 48.7965L94.2333 48.618L94.2318 48.6201L94.4744 48.7965ZM94.4322 49.582L94.1819 49.7475L94.1852 49.7524L94.4322 49.582ZM94.6857 49.8232L94.526 50.0771L94.529 50.0789L94.6857 49.8232ZM95.0089 49.9798L94.9054 50.2614L94.909 50.2627L95.0089 49.9798ZM95.3196 50.0767L95.3976 49.787L95.396 49.7866L95.3196 50.0767ZM95.8367 50.2159L95.7587 50.5056L95.7605 50.5061L95.8367 50.2159ZM96.2791 50.3601L96.1732 50.6407L96.1741 50.6411L96.2791 50.3601ZM96.7489 50.6112L96.5751 50.8557L96.5782 50.8578L96.7489 50.6112ZM97.1218 51.0138L97.3795 50.8603L97.3795 50.8603L97.1218 51.0138ZM97.0522 52.3636L96.8006 52.2003L96.7997 52.2016L97.0522 52.3636ZM96.4258 52.8931L96.2969 52.6222L96.2962 52.6225L96.4258 52.8931ZM94.4819 52.913L94.3602 53.1872L94.3609 53.1875L94.4819 52.913ZM93.8555 52.4208L93.6116 52.5955L93.6125 52.5968L93.8555 52.4208ZM93.5994 51.6875V51.3875H93.2773L93.3002 51.7089L93.5994 51.6875ZM94.2358 51.6875L94.5347 51.6617L94.5111 51.3875H94.2358V51.6875ZM94.4297 52.1648L94.2061 52.3648L94.2089 52.3679L94.4297 52.1648ZM94.8622 52.4432L94.7625 52.7261L94.7658 52.7272L94.8622 52.4432ZM96.0629 52.4183L96.176 52.6962L96.1781 52.6953L96.0629 52.4183ZM96.5078 52.0952L96.7426 52.2819L96.7437 52.2805L96.5078 52.0952ZM96.5302 51.1953L96.7542 50.9958L96.7542 50.9958L96.5302 51.1953ZM96.1573 50.9368L96.0388 51.2124L96.0388 51.2124L96.1573 50.9368ZM95.6577 50.7628L95.5753 51.0512L95.5774 51.0518L95.6577 50.7628ZM95.0313 50.5838L94.9484 50.8721L94.9488 50.8723L95.0313 50.5838ZM94.0867 50.0941L93.8842 50.3155L93.8842 50.3155L94.0867 50.0941ZM93.9698 48.5156L93.7274 48.3389L93.7271 48.3393L93.9698 48.5156ZM94.5963 48.0185L94.7192 48.2921L94.72 48.2918L94.5963 48.0185ZM96.3537 48.016L96.2281 48.2884L96.2296 48.2891L96.3537 48.016ZM96.9602 48.4933L96.7188 48.6713L96.7198 48.6726L96.9602 48.4933ZM97.1989 49.1818V49.4818H97.5087L97.4987 49.1721L97.1989 49.1818ZM96.9002 49.1465C96.86 48.8066 96.6902 48.5322 96.404 48.3444L96.0748 48.846C96.2128 48.9366 96.285 49.0532 96.3044 49.2171L96.9002 49.1465ZM96.404 48.3444C96.1333 48.1667 95.8129 48.0864 95.4588 48.0864V48.6864C95.7213 48.6864 95.9212 48.7452 96.0748 48.846L96.404 48.3444ZM95.4588 48.0864C95.2015 48.0864 94.9623 48.128 94.7484 48.2203L94.986 48.7712C95.1101 48.7177 95.2654 48.6864 95.4588 48.6864V48.0864ZM94.7474 48.2207C94.5391 48.3114 94.3635 48.4422 94.2333 48.618L94.7156 48.975C94.7743 48.8957 94.8605 48.8259 94.987 48.7708L94.7474 48.2207ZM94.2318 48.6201C94.1006 48.8005 94.0352 49.0077 94.0352 49.2315H94.6352C94.6352 49.1305 94.6627 49.0477 94.7171 48.973L94.2318 48.6201ZM94.0352 49.2315C94.0352 49.4166 94.0799 49.5932 94.1819 49.7475L94.6825 49.4166C94.6552 49.3753 94.6352 49.3182 94.6352 49.2315H94.0352ZM94.1852 49.7524C94.2755 49.8833 94.3902 49.9917 94.526 50.0771L94.8455 49.5692C94.7758 49.5254 94.7214 49.473 94.6792 49.4117L94.1852 49.7524ZM94.529 50.0789C94.6485 50.1522 94.7741 50.2131 94.9054 50.2613L95.1124 49.6982C95.0183 49.6636 94.9285 49.6201 94.8425 49.5674L94.529 50.0789ZM94.909 50.2627C95.0278 50.3046 95.1394 50.3395 95.2433 50.3668L95.396 49.7866C95.3109 49.7642 95.2153 49.7345 95.1087 49.6969L94.909 50.2627ZM95.2416 50.3664L95.7587 50.5056L95.9147 49.9262L95.3976 49.787L95.2416 50.3664ZM95.7605 50.5061C95.8807 50.5376 96.0181 50.5822 96.1732 50.6407L96.3851 50.0794C96.2154 50.0153 96.0577 49.9638 95.9128 49.9257L95.7605 50.5061ZM96.1741 50.6411C96.3127 50.6929 96.4462 50.764 96.5751 50.8556L96.9228 50.3667C96.7534 50.2462 96.5737 50.1499 96.3842 50.0791L96.1741 50.6411ZM96.5782 50.8578C96.6922 50.9368 96.7874 51.0387 96.8641 51.1674L97.3795 50.8603C97.2607 50.6609 97.1073 50.4944 96.9197 50.3645L96.5782 50.8578ZM96.8641 51.1674C96.9281 51.2748 96.9685 51.42 96.9685 51.6179H97.5685C97.5685 51.3386 97.5111 51.0811 97.3795 50.8603L96.8641 51.1674ZM96.9685 51.6179C96.9685 51.8374 96.9119 52.0288 96.8006 52.2003L97.3038 52.527C97.4809 52.2543 97.5685 51.9486 97.5685 51.6179H96.9685ZM96.7997 52.2016C96.6919 52.3697 96.5294 52.5116 96.2969 52.6222L96.5547 53.164C96.8724 53.0128 97.1275 52.8017 97.3047 52.5257L96.7997 52.2016ZM96.2962 52.6225C96.0732 52.7293 95.7878 52.7895 95.429 52.7895V53.3895C95.8524 53.3895 96.2315 53.3187 96.5553 53.1637L96.2962 52.6225ZM95.429 52.7895C95.096 52.7895 94.8233 52.7357 94.603 52.6385L94.3609 53.1875C94.6741 53.3256 95.0328 53.3895 95.429 53.3895V52.7895ZM94.6036 52.6388C94.3811 52.54 94.2164 52.4076 94.0984 52.2448L93.6125 52.5968C93.7995 52.855 94.0524 53.0506 94.3602 53.1872L94.6036 52.6388ZM94.0993 52.2461C93.9833 52.0842 93.9149 51.8938 93.8987 51.6661L93.3002 51.7089C93.3237 52.0381 93.426 52.3365 93.6116 52.5955L94.0993 52.2461ZM93.5994 51.9875H94.2358V51.3875H93.5994V51.9875ZM93.9369 51.7133C93.9582 51.9606 94.0441 52.1838 94.2061 52.3648L94.6533 51.9647C94.5899 51.8939 94.5465 51.7988 94.5347 51.6617L93.9369 51.7133ZM94.2089 52.3679C94.3595 52.5316 94.5466 52.65 94.7625 52.7261L94.9619 52.1602C94.8298 52.1137 94.7286 52.0466 94.6505 51.9617L94.2089 52.3679ZM94.7658 52.7272C94.9752 52.7984 95.1969 52.8327 95.429 52.8327V52.2327C95.2567 52.2327 95.1006 52.2073 94.9587 52.1591L94.7658 52.7272ZM95.429 52.8327C95.6968 52.8327 95.9474 52.7892 96.176 52.6962L95.9498 52.1405C95.8038 52.1999 95.6318 52.2327 95.429 52.2327V52.8327ZM96.1781 52.6953C96.4049 52.601 96.5971 52.4649 96.7426 52.2819L96.273 51.9085C96.1998 52.0005 96.0953 52.0799 95.9477 52.1413L96.1781 52.6953ZM96.7437 52.2805C96.8967 52.0858 96.9719 51.8573 96.9719 51.608H96.3719C96.3719 51.7298 96.3377 51.8262 96.2719 51.9098L96.7437 52.2805ZM96.9719 51.608C96.9719 51.3801 96.9066 51.1669 96.7542 50.9958L96.3062 51.3948C96.3427 51.4359 96.3719 51.4977 96.3719 51.608H96.9719ZM96.7542 50.9958C96.6258 50.8516 96.4631 50.7417 96.2759 50.6612L96.0388 51.2124C96.1598 51.2644 96.2457 51.327 96.3062 51.3948L96.7542 50.9958ZM96.2759 50.6612C96.1081 50.589 95.9286 50.5267 95.738 50.4737L95.5774 51.0518C95.7447 51.0983 95.8983 51.152 96.0388 51.2124L96.2759 50.6612ZM95.7401 50.4743L95.1137 50.2953L94.9488 50.8723L95.5753 51.0512L95.7401 50.4743ZM95.1142 50.2955C94.7474 50.19 94.4779 50.0453 94.2891 49.8727L93.8842 50.3155C94.1594 50.5671 94.5197 50.7489 94.9484 50.8721L95.1142 50.2955ZM94.2891 49.8727C94.1253 49.723 94.0387 49.5288 94.0387 49.2614H93.4387C93.4387 49.68 93.584 50.041 93.8842 50.3155L94.2891 49.8727ZM94.0387 49.2614C94.0387 49.0339 94.0989 48.8483 94.2125 48.692L93.7271 48.3393C93.5325 48.6072 93.4387 48.9188 93.4387 49.2614H94.0387ZM94.2123 48.6923C94.3348 48.5242 94.5008 48.3903 94.7192 48.2921L94.4733 47.7448C94.168 47.882 93.9165 48.0795 93.7274 48.339L94.2123 48.6923ZM94.72 48.2918C94.9401 48.1921 95.1913 48.1395 95.4787 48.1395V47.5395C95.1165 47.5395 94.7794 47.6062 94.4725 47.7452L94.72 48.2918ZM95.4787 48.1395C95.7707 48.1395 96.0183 48.1917 96.2281 48.2884L96.4793 47.7435C96.1787 47.6049 95.843 47.5395 95.4787 47.5395V48.1395ZM96.2296 48.2891C96.4437 48.3864 96.6034 48.5149 96.7188 48.6713L97.2017 48.3152C97.0188 48.0672 96.7741 47.8775 96.4778 47.7429L96.2296 48.2891ZM96.7198 48.6726C96.8332 48.8246 96.8927 48.9947 96.899 49.1915L97.4987 49.1721C97.4885 48.8552 97.3889 48.5662 97.2007 48.3139L96.7198 48.6726ZM97.1989 48.8818H96.6023V49.4818H97.1989V48.8818ZM98.7721 53H98.4721V53.3H98.7721V53ZM98.7721 47.9091V47.6091H98.4721V47.9091H98.7721ZM101.845 47.9091H102.145V47.6091H101.845V47.9091ZM101.845 48.456V48.756H102.145V48.456H101.845ZM99.3885 48.456V48.156H99.0885V48.456H99.3885ZM99.3885 50.1761H99.0885V50.4761H99.3885V50.1761ZM101.685 50.1761H101.985V49.8761H101.685V50.1761ZM101.685 50.723V51.023H101.985V50.723H101.685ZM99.3885 50.723V50.423H99.0885V50.723H99.3885ZM99.3885 52.4531H99.0885V52.7531H99.3885V52.4531ZM101.884 52.4531H102.184V52.1531H101.884V52.4531ZM101.884 53V53.3H102.184V53H101.884ZM99.0721 53V47.9091H98.4721V53H99.0721ZM98.7721 48.2091H101.845V47.6091H98.7721V48.2091ZM101.545 47.9091V48.456H102.145V47.9091H101.545ZM101.845 48.156H99.3885V48.756H101.845V48.156ZM99.0885 48.456V50.1761H99.6885V48.456H99.0885ZM99.3885 50.4761H101.685V49.8761H99.3885V50.4761ZM101.385 50.1761V50.723H101.985V50.1761H101.385ZM101.685 50.423H99.3885V51.023H101.685V50.423ZM99.0885 50.723V52.4531H99.6885V50.723H99.0885ZM99.3885 52.7531H101.884V52.1531H99.3885V52.7531ZM101.584 52.4531V53H102.184V52.4531H101.584ZM101.884 52.7H98.7721V53.3H101.884V52.7ZM103.446 53H103.146V53.3H103.446V53ZM103.446 47.9091V47.6091H103.146V47.9091H103.446ZM104.062 47.9091H104.362V47.6091H104.062V47.9091ZM104.062 52.4531H103.762V52.7531H104.062V52.4531ZM106.429 52.4531H106.729V52.1531H106.429V52.4531ZM106.429 53V53.3H106.729V53H106.429ZM103.746 53V47.9091H103.146V53H103.746ZM103.446 48.2091H104.062V47.6091H103.446V48.2091ZM103.762 47.9091V52.4531H104.362V47.9091H103.762ZM104.062 52.7531H106.429V52.1531H104.062V52.7531ZM106.129 52.4531V53H106.729V52.4531H106.129ZM106.429 52.7H103.446V53.3H106.429V52.7ZM107.873 53H107.573V53.3H107.873V53ZM107.873 47.9091V47.6091H107.573V47.9091H107.873ZM108.49 47.9091H108.79V47.6091H108.49V47.9091ZM108.49 52.4531H108.19V52.7531H108.49V52.4531ZM110.856 52.4531H111.156V52.1531H110.856V52.4531ZM110.856 53V53.3H111.156V53H110.856ZM108.173 53V47.9091H107.573V53H108.173ZM107.873 48.2091H108.49V47.6091H107.873V48.2091ZM108.19 47.9091V52.4531H108.79V47.9091H108.19ZM108.49 52.7531H110.856V52.1531H108.49V52.7531ZM110.556 52.4531V53H111.156V52.4531H110.556ZM110.856 52.7H107.873V53.3H110.856V52.7ZM114.792 51.0884L115.004 50.8763L115.004 50.8763L114.792 51.0884ZM114.792 50.457L115.004 50.6692L115.004 50.6692L114.792 50.457ZM115.423 50.457L115.211 50.6692L115.211 50.6692L115.423 50.457ZM115.493 50.9964L115.237 50.8402L115.234 50.8449L115.493 50.9964ZM115.331 51.1605L115.485 51.4178L115.487 51.4167L115.331 51.1605ZM115.107 50.9202C115.065 50.9202 115.036 50.9087 115.004 50.8763L114.58 51.3006C114.723 51.4438 114.904 51.5202 115.107 51.5202V50.9202ZM115.004 50.8763C114.971 50.8439 114.96 50.8147 114.96 50.7727H114.36C114.36 50.9761 114.436 51.1573 114.58 51.3006L115.004 50.8763ZM114.96 50.7727C114.96 50.7308 114.971 50.7015 115.004 50.6692L114.58 50.2449C114.436 50.3882 114.36 50.5694 114.36 50.7727H114.96ZM115.004 50.6692C115.036 50.6368 115.065 50.6253 115.107 50.6253V50.0253C114.904 50.0253 114.723 50.1016 114.58 50.2449L115.004 50.6692ZM115.107 50.6253C115.149 50.6253 115.179 50.6368 115.211 50.6692L115.635 50.2449C115.492 50.1016 115.311 50.0253 115.107 50.0253V50.6253ZM115.211 50.6692C115.243 50.7015 115.255 50.7308 115.255 50.7727H115.855C115.855 50.5694 115.779 50.3882 115.635 50.2449L115.211 50.6692ZM115.255 50.7727C115.255 50.8 115.249 50.8204 115.237 50.8403L115.749 51.1526C115.82 51.0366 115.855 50.9078 115.855 50.7727H115.255ZM115.234 50.8449C115.219 50.8695 115.201 50.8885 115.175 50.9044L115.487 51.4167C115.597 51.3497 115.687 51.2592 115.752 51.148L115.234 50.8449ZM115.177 50.9033C115.16 50.913 115.14 50.9202 115.107 50.9202V51.5202C115.241 51.5202 115.369 51.4875 115.485 51.4178L115.177 50.9033ZM119.636 53H119.336V53.3H119.636V53ZM119.636 47.9091V47.6091H119.336V47.9091H119.636ZM122.335 48.1129L122.194 48.3777L122.196 48.3784L122.335 48.1129ZM122.902 48.6673L122.636 48.8059L122.636 48.8059L122.902 48.6673ZM122.902 50.2681L122.637 50.1279L122.637 50.1279L122.902 50.2681ZM122.338 50.815L122.476 51.0816L122.477 51.0808L122.338 50.815ZM119.974 51.0114H119.674V51.3114H119.974V51.0114ZM119.974 50.4545V50.1545H119.674V50.4545H119.974ZM122.002 50.3352L121.874 50.0643L121.873 50.0648L122.002 50.3352ZM122.365 49.9972L122.099 49.8594L122.098 49.8606L122.365 49.9972ZM122.365 48.9357L122.634 48.8016L122.365 48.9357ZM122 48.5827L121.865 48.8505L121.867 48.8516L122 48.5827ZM120.252 48.456V48.156H119.952V48.456H120.252ZM120.252 53V53.3H120.552V53H120.252ZM122.032 50.7131L122.295 50.5689L122.21 50.4131H122.032V50.7131ZM123.285 53V53.3H123.791L123.548 52.8559L123.285 53ZM122.569 53L122.305 53.1424L122.39 53.3H122.569V53ZM121.336 50.7131V50.4131H120.834L121.072 50.8554L121.336 50.7131ZM119.936 53V47.9091H119.336V53H119.936ZM119.636 48.2091H121.356V47.6091H119.636V48.2091ZM121.356 48.2091C121.722 48.2091 121.996 48.272 122.194 48.3777L122.476 47.8481C122.165 47.6821 121.785 47.6091 121.356 47.6091V48.2091ZM122.196 48.3784C122.402 48.4868 122.544 48.6295 122.636 48.8059L123.168 48.5286C123.015 48.2344 122.779 48.0075 122.475 47.8474L122.196 48.3784ZM122.636 48.8059C122.734 48.9931 122.786 49.2121 122.786 49.4702H123.386C123.386 49.1283 123.316 48.8121 123.168 48.5286L122.636 48.8059ZM122.786 49.4702C122.786 49.7283 122.734 49.9449 122.637 50.1279L123.167 50.4083C123.316 50.1273 123.386 49.8119 123.386 49.4702H122.786ZM122.637 50.1279C122.545 50.3014 122.404 50.442 122.199 50.5491L122.477 51.0808C122.779 50.9228 123.014 50.6989 123.167 50.4083L122.637 50.1279ZM122.2 50.5484C122.002 50.6506 121.73 50.7114 121.366 50.7114V51.3114C121.791 51.3114 122.166 51.2412 122.476 51.0815L122.2 50.5484ZM121.366 50.7114H119.974V51.3114H121.366V50.7114ZM120.274 51.0114V50.4545H119.674V51.0114H120.274ZM119.974 50.7545H121.346V50.1545H119.974V50.7545ZM121.346 50.7545C121.643 50.7545 121.911 50.7117 122.132 50.6057L121.873 50.0648C121.762 50.1178 121.593 50.1545 121.346 50.1545V50.7545ZM122.131 50.6062C122.35 50.5022 122.524 50.346 122.632 50.1337L122.098 49.8606C122.058 49.94 121.99 50.0092 121.874 50.0643L122.131 50.6062ZM122.632 50.1349C122.734 49.9362 122.78 49.7112 122.78 49.4702H122.18C122.18 49.6368 122.149 49.7631 122.099 49.8594L122.632 50.1349ZM122.78 49.4702C122.78 49.2288 122.734 49.0031 122.634 48.8016L122.097 49.0699C122.149 49.1733 122.18 49.3039 122.18 49.4702H122.78ZM122.634 48.8016C122.525 48.585 122.353 48.4228 122.133 48.3139L121.867 48.8516C121.982 48.9084 122.053 48.9815 122.097 49.0699L122.634 48.8016ZM122.135 48.3149C121.911 48.2017 121.638 48.156 121.336 48.156V48.756C121.585 48.756 121.754 48.7948 121.865 48.8505L122.135 48.3149ZM121.336 48.156H120.252V48.756H121.336V48.156ZM119.952 48.456V53H120.552V48.456H119.952ZM120.252 52.7H119.636V53.3H120.252V52.7ZM121.769 50.8572L123.022 53.1441L123.548 52.8559L122.295 50.5689L121.769 50.8572ZM123.285 52.7H122.569V53.3H123.285V52.7ZM122.833 52.8576L121.6 50.5707L121.072 50.8554L122.305 53.1424L122.833 52.8576ZM121.336 51.0131H122.032V50.4131H121.336V51.0131ZM124.603 53H124.303V53.3H124.603V53ZM124.603 47.9091V47.6091H124.303V47.9091H124.603ZM127.676 47.9091H127.976V47.6091H127.676V47.9091ZM127.676 48.456V48.756H127.976V48.456H127.676ZM125.22 48.456V48.156H124.92V48.456H125.22ZM125.22 50.1761H124.92V50.4761H125.22V50.1761ZM127.517 50.1761H127.817V49.8761H127.517V50.1761ZM127.517 50.723V51.023H127.817V50.723H127.517ZM125.22 50.723V50.423H124.92V50.723H125.22ZM125.22 52.4531H124.92V52.7531H125.22V52.4531ZM127.716 52.4531H128.016V52.1531H127.716V52.4531ZM127.716 53V53.3H128.016V53H127.716ZM124.903 53V47.9091H124.303V53H124.903ZM124.603 48.2091H127.676V47.6091H124.603V48.2091ZM127.376 47.9091V48.456H127.976V47.9091H127.376ZM127.676 48.156H125.22V48.756H127.676V48.156ZM124.92 48.456V50.1761H125.52V48.456H124.92ZM125.22 50.4761H127.517V49.8761H125.22V50.4761ZM127.217 50.1761V50.723H127.817V50.1761H127.217ZM127.517 50.423H125.22V51.023H127.517V50.423ZM124.92 50.723V52.4531H125.52V50.723H124.92ZM125.22 52.7531H127.716V52.1531H125.22V52.7531ZM127.416 52.4531V53H128.016V52.4531H127.416ZM127.716 52.7H124.603V53.3H127.716V52.7ZM129.277 53H128.977V53.3H129.277V53ZM129.277 47.9091V47.6091H128.977V47.9091H129.277ZM131.977 48.1254L131.828 48.3861L131.83 48.3873L131.977 48.1254ZM132.543 48.7045L132.275 48.8394L132.275 48.8394L132.543 48.7045ZM132.543 50.3377L132.275 50.2035L132.274 50.205L132.543 50.3377ZM131.982 50.9244L132.13 51.1852L132.131 51.1844L131.982 50.9244ZM129.774 51.1406H129.474V51.4406H129.774V51.1406ZM129.774 50.5938V50.2937H129.474V50.5938H129.774ZM131.646 50.4521L131.497 50.1914L131.497 50.1914L131.646 50.4521ZM132.006 50.0692L131.735 49.9418L131.734 49.943L132.006 50.0692ZM132.006 48.973L131.734 49.0993L131.735 49.1016L132.006 48.973ZM131.643 48.5952L131.498 48.8575L131.5 48.8586L131.643 48.5952ZM129.893 48.456V48.156H129.593V48.456H129.893ZM129.893 53V53.3H130.193V53H129.893ZM129.577 53V47.9091H128.977V53H129.577ZM129.277 48.2091H130.997V47.6091H129.277V48.2091ZM130.997 48.2091C131.363 48.2091 131.634 48.2754 131.828 48.3861L132.125 47.8646C131.812 47.6869 131.43 47.6091 130.997 47.6091V48.2091ZM131.83 48.3873C132.037 48.5028 132.182 48.6533 132.275 48.8394L132.811 48.5697C132.66 48.2686 132.426 48.033 132.123 47.8634L131.83 48.3873ZM132.275 48.8394C132.375 49.0372 132.427 49.262 132.427 49.5199H133.027C133.027 49.1778 132.957 48.8592 132.811 48.5697L132.275 48.8394ZM132.427 49.5199C132.427 49.7777 132.375 50.0037 132.275 50.2035L132.812 50.4719C132.957 50.1812 133.027 49.862 133.027 49.5199H132.427ZM132.274 50.205C132.182 50.3931 132.038 50.546 131.832 50.6643L132.131 51.1844C132.432 51.0111 132.663 50.7728 132.812 50.4704L132.274 50.205ZM131.833 50.6636C131.638 50.7745 131.369 50.8406 131.007 50.8406V51.4406C131.437 51.4406 131.818 51.3626 132.13 51.1851L131.833 50.6636ZM131.007 50.8406H129.774V51.4406H131.007V50.8406ZM130.074 51.1406V50.5938H129.474V51.1406H130.074ZM129.774 50.8938H130.987V50.2937H129.774V50.8938ZM130.987 50.8938C131.292 50.8938 131.568 50.8418 131.795 50.7127L131.497 50.1914C131.392 50.2513 131.23 50.2937 130.987 50.2937V50.8938ZM131.795 50.7127C132.01 50.5899 132.176 50.4172 132.279 50.1955L131.734 49.943C131.688 50.0428 131.613 50.1253 131.497 50.1914L131.795 50.7127ZM132.278 50.1967C132.375 49.9893 132.421 49.7618 132.421 49.5199H131.821C131.821 49.6857 131.79 49.8244 131.735 49.9418L132.278 50.1967ZM132.421 49.5199C132.421 49.2781 132.375 49.0509 132.277 48.8445L131.735 49.1016C131.79 49.2167 131.821 49.354 131.821 49.5199H132.421ZM132.279 48.8468C132.175 48.6232 132.006 48.4511 131.787 48.3317L131.5 48.8586C131.615 48.9215 131.689 49.0014 131.734 49.0993L132.279 48.8468ZM131.789 48.3328C131.562 48.2067 131.284 48.156 130.977 48.156V48.756C131.224 48.756 131.391 48.798 131.498 48.8575L131.789 48.3328ZM130.977 48.156H129.893V48.756H130.977V48.156ZM129.593 48.456V53H130.193V48.456H129.593ZM129.893 52.7H129.277V53.3H129.893V52.7ZM133.9 53V53.3H134.112L134.182 53.1004L133.9 53ZM133.253 53L132.972 52.8966L132.824 53.3H133.253V53ZM135.123 47.9091V47.6091H134.913L134.841 47.8057L135.123 47.9091ZM135.759 47.9091L136.041 47.8057L135.968 47.6091H135.759V47.9091ZM137.628 53V53.3H138.058L137.91 52.8966L137.628 53ZM136.982 53L136.699 53.1004L136.77 53.3H136.982V53ZM135.461 48.7145L135.743 48.6141L135.673 48.4145H135.461V48.7145ZM135.421 48.7145V48.4145H135.209L135.138 48.6141L135.421 48.7145ZM134.138 51.0114V50.7114H133.838V51.0114H134.138ZM136.743 51.0114H137.043V50.7114H136.743V51.0114ZM136.743 51.5582V51.8582H137.043V51.5582H136.743ZM134.138 51.5582H133.838V51.8582H134.138V51.5582ZM133.9 52.7H133.253V53.3H133.9V52.7ZM133.535 53.1034L135.404 48.0125L134.841 47.8057L132.972 52.8966L133.535 53.1034ZM135.123 48.2091H135.759V47.6091H135.123V48.2091ZM135.477 48.0125L137.347 53.1034L137.91 52.8966L136.041 47.8057L135.477 48.0125ZM137.628 52.7H136.982V53.3H137.628V52.7ZM137.265 52.8996L135.743 48.6141L135.178 48.8148L136.699 53.1004L137.265 52.8996ZM135.461 48.4145H135.421V49.0145H135.461V48.4145ZM135.138 48.6141L133.617 52.8996L134.182 53.1004L135.704 48.8148L135.138 48.6141ZM134.138 51.3114H136.743V50.7114H134.138V51.3114ZM136.443 51.0114V51.5582H137.043V51.0114H136.443ZM136.743 51.2582H134.138V51.8582H136.743V51.2582ZM134.438 51.5582V51.0114H133.838V51.5582H134.438ZM139.528 47.9091H139.828V47.6091H139.528V47.9091ZM139.528 53V53.3H139.828V53H139.528ZM138.911 53H138.611V53.3H138.911V53ZM138.911 47.9091V47.6091H138.611V47.9091H138.911ZM139.228 47.9091V53H139.828V47.9091H139.228ZM139.528 52.7H138.911V53.3H139.528V52.7ZM139.211 53V47.9091H138.611V53H139.211ZM138.911 48.2091H139.528V47.6091H138.911V48.2091ZM141.254 53H140.954V53.3H141.254V53ZM141.254 47.9091V47.6091H140.954V47.9091H141.254ZM143.953 48.1129L143.812 48.3777L143.814 48.3784L143.953 48.1129ZM144.52 48.6673L144.254 48.8059L144.254 48.8059L144.52 48.6673ZM144.52 50.2681L144.255 50.1279L144.255 50.1279L144.52 50.2681ZM143.956 50.815L144.094 51.0816L144.095 51.0808L143.956 50.815ZM141.592 51.0114H141.292V51.3114H141.592V51.0114ZM141.592 50.4545V50.1545H141.292V50.4545H141.592ZM143.62 50.3352L143.492 50.0643L143.491 50.0648L143.62 50.3352ZM143.983 49.9972L143.717 49.8594L143.716 49.8606L143.983 49.9972ZM143.983 48.9357L144.252 48.8016L143.983 48.9357ZM143.618 48.5827L143.483 48.8505L143.485 48.8516L143.618 48.5827ZM141.87 48.456V48.156H141.57V48.456H141.87ZM141.87 53V53.3H142.17V53H141.87ZM143.65 50.7131L143.913 50.5689L143.828 50.4131H143.65V50.7131ZM144.903 53V53.3H145.409L145.166 52.8559L144.903 53ZM144.187 53L143.923 53.1424L144.008 53.3H144.187V53ZM142.954 50.7131V50.4131H142.452L142.69 50.8554L142.954 50.7131ZM141.554 53V47.9091H140.954V53H141.554ZM141.254 48.2091H142.974V47.6091H141.254V48.2091ZM142.974 48.2091C143.34 48.2091 143.614 48.272 143.812 48.3777L144.094 47.8481C143.783 47.6821 143.403 47.6091 142.974 47.6091V48.2091ZM143.814 48.3784C144.02 48.4868 144.162 48.6295 144.254 48.8059L144.786 48.5286C144.633 48.2344 144.397 48.0075 144.093 47.8474L143.814 48.3784ZM144.254 48.8059C144.352 48.9931 144.404 49.2121 144.404 49.4702H145.004C145.004 49.1283 144.934 48.8121 144.786 48.5286L144.254 48.8059ZM144.404 49.4702C144.404 49.7283 144.352 49.9449 144.255 50.1279L144.785 50.4083C144.934 50.1273 145.004 49.8119 145.004 49.4702H144.404ZM144.255 50.1279C144.163 50.3014 144.022 50.442 143.817 50.5491L144.095 51.0808C144.397 50.9228 144.632 50.6989 144.785 50.4083L144.255 50.1279ZM143.818 50.5484C143.62 50.6506 143.348 50.7114 142.984 50.7114V51.3114C143.409 51.3114 143.784 51.2412 144.094 51.0815L143.818 50.5484ZM142.984 50.7114H141.592V51.3114H142.984V50.7114ZM141.892 51.0114V50.4545H141.292V51.0114H141.892ZM141.592 50.7545H142.964V50.1545H141.592V50.7545ZM142.964 50.7545C143.261 50.7545 143.529 50.7117 143.75 50.6057L143.491 50.0648C143.38 50.1178 143.211 50.1545 142.964 50.1545V50.7545ZM143.749 50.6062C143.968 50.5022 144.142 50.346 144.25 50.1337L143.716 49.8606C143.676 49.94 143.608 50.0092 143.492 50.0643L143.749 50.6062ZM144.25 50.1349C144.352 49.9362 144.398 49.7112 144.398 49.4702H143.798C143.798 49.6368 143.767 49.7631 143.717 49.8594L144.25 50.1349ZM144.398 49.4702C144.398 49.2288 144.352 49.0031 144.252 48.8016L143.715 49.0699C143.767 49.1733 143.798 49.3039 143.798 49.4702H144.398ZM144.252 48.8016C144.143 48.585 143.971 48.4228 143.751 48.3139L143.485 48.8516C143.6 48.9084 143.671 48.9815 143.715 49.0699L144.252 48.8016ZM143.753 48.3149C143.529 48.2017 143.256 48.156 142.954 48.156V48.756C143.203 48.756 143.372 48.7948 143.483 48.8505L143.753 48.3149ZM142.954 48.156H141.87V48.756H142.954V48.156ZM141.57 48.456V53H142.17V48.456H141.57ZM141.87 52.7H141.254V53.3H141.87V52.7ZM143.387 50.8572L144.64 53.1441L145.166 52.8559L143.913 50.5689L143.387 50.8572ZM144.903 52.7H144.187V53.3H144.903V52.7ZM144.451 52.8576L143.218 50.5707L142.69 50.8554L143.923 53.1424L144.451 52.8576ZM142.954 51.0131H143.65V50.4131H142.954V51.0131Z" fill="white"/>
<defs>
<clipPath id="clip0_3_4">
<rect width="112" height="36" fill="white" transform="translate(6 10)"/>
</clipPath>
</defs>
</svg>
