<svg width="373" height="511" viewBox="0 0 373 511" fill="none" xmlns="http://www.w3.org/2000/svg">
<path d="M331.367 0H148.633C125.697 0 107 19.1625 107 42.6685V468.331C107 491.837 125.697 511 148.633 511H331.367C354.303 511 373 491.837 373 468.331V42.6685C373 19.1625 354.303 0 331.367 0ZM215.195 33.9815H265.054C269.542 33.9815 273.281 37.814 273.281 42.413C273.281 47.012 269.542 50.8445 265.054 50.8445H215.195C210.708 50.8445 206.968 47.012 206.968 42.413C206.719 37.814 210.458 33.9815 215.195 33.9815ZM240.125 493.881C226.413 493.881 215.195 482.384 215.195 468.331C215.195 454.279 226.413 442.782 240.125 442.782C253.836 442.782 265.054 454.279 265.054 468.331C265.054 482.384 253.836 493.881 240.125 493.881ZM356.297 425.663H123.703V85.0815H356.297V425.663Z" fill="#1E293B"/>
<rect y="118" width="283" height="257" fill="#F8FAFC"/>
<path d="M143.773 362.096C209.996 362.096 263.679 311.305 263.679 248.651C263.679 185.996 209.996 135.205 143.773 135.205M143.773 362.096C77.5511 362.096 23.8675 311.305 23.8675 248.651C23.8675 185.996 77.5511 135.205 143.773 135.205M143.773 362.096C110.001 329.196 90.4817 290.312 90.4817 248.651C90.4817 206.989 110.001 168.105 143.773 135.205M143.773 362.096C177.545 329.196 197.064 290.312 197.064 248.651C197.064 206.989 177.545 168.105 143.773 135.205M250.356 210.835H37.1903M250.356 286.466H37.1903" stroke="#EB0000" stroke-width="10" stroke-linecap="round" stroke-linejoin="round"/>
</svg>
