<svg width="360" height="511" viewBox="0 0 360 511" fill="none" xmlns="http://www.w3.org/2000/svg">
<path d="M318.367 0H135.633C112.697 0 94 19.1625 94 42.6685V468.331C94 491.837 112.697 511 135.633 511H318.367C341.303 511 360 491.837 360 468.331V42.6685C360 19.1625 341.303 0 318.367 0ZM202.195 33.9815H252.054C256.542 33.9815 260.281 37.814 260.281 42.413C260.281 47.012 256.542 50.8445 252.054 50.8445H202.195C197.708 50.8445 193.968 47.012 193.968 42.413C193.719 37.814 197.458 33.9815 202.195 33.9815ZM227.125 493.881C213.413 493.881 202.195 482.384 202.195 468.331C202.195 454.279 213.413 442.782 227.125 442.782C240.836 442.782 252.054 454.279 252.054 468.331C252.054 482.384 240.836 493.881 227.125 493.881ZM343.297 425.663H110.703V85.0815H343.297V425.663Z" fill="#1E293B"/>
<rect x="30" y="125" width="249" height="239" fill="#F8FAFC"/>
<path d="M227 199.5H57M227 199.5L170.334 155M227 199.5L170.334 244" stroke="#EB0000" stroke-width="10" stroke-linecap="round" stroke-linejoin="round"/>
<path d="M5 289H175M5 289L61.6666 334M5 289L61.6666 244" stroke="#EB0000" stroke-width="10" stroke-linecap="round" stroke-linejoin="round"/>
</svg>
