<svg width="365" height="511" viewBox="0 0 365 511" fill="none" xmlns="http://www.w3.org/2000/svg">
<path d="M323.367 0H140.633C117.697 0 99 19.1625 99 42.6685V468.331C99 491.837 117.697 511 140.633 511H323.367C346.303 511 365 491.837 365 468.331V42.6685C365 19.1625 346.303 0 323.367 0ZM207.195 33.9815H257.054C261.542 33.9815 265.281 37.814 265.281 42.413C265.281 47.012 261.542 50.8445 257.054 50.8445H207.195C202.708 50.8445 198.968 47.012 198.968 42.413C198.719 37.814 202.458 33.9815 207.195 33.9815ZM232.125 493.881C218.413 493.881 207.195 482.384 207.195 468.331C207.195 454.279 218.413 442.782 232.125 442.782C245.836 442.782 257.054 454.279 257.054 468.331C257.054 482.384 245.836 493.881 232.125 493.881ZM348.297 425.663H115.703V85.0815H348.297V425.663Z" fill="#1E293B"/>
<rect y="141" width="222" height="216" fill="#F8FAFC"/>
<path d="M79.2244 270.556C79.2244 282.468 88.657 292.07 100.377 292.07H124.292C134.486 292.07 142.776 283.668 142.776 273.326C142.776 262.061 137.726 258.091 130.199 255.506L91.8011 242.579C84.2741 239.993 79.2244 236.023 79.2244 224.758C79.2244 214.417 87.5136 206.014 97.7087 206.014H121.624C133.343 206.014 142.776 215.617 142.776 227.528" stroke="#EB0000" stroke-width="10" stroke-linecap="round" stroke-linejoin="round"/>
<path d="M111 192.282V305.803" stroke="#EB0000" stroke-width="10" stroke-linecap="round" stroke-linejoin="round"/>
<path d="M139.326 342.423H82.6743C35.4648 342.423 16.5809 323.746 16.5809 277.056V221.028C16.5809 174.338 35.4648 155.662 82.6743 155.662H139.326C186.535 155.662 205.419 174.338 205.419 221.028V277.056C205.419 323.746 186.535 342.423 139.326 342.423Z" stroke="#EB0000" stroke-width="10" stroke-linecap="round" stroke-linejoin="round"/>
</svg>
