<svg width="366" height="511" viewBox="0 0 366 511" fill="none" xmlns="http://www.w3.org/2000/svg">
<path d="M324.367 0H141.633C118.697 0 100 19.1625 100 42.6685V468.331C100 491.837 118.697 511 141.633 511H324.367C347.303 511 366 491.837 366 468.331V42.6685C366 19.1625 347.303 0 324.367 0ZM208.195 33.9815H258.054C262.542 33.9815 266.281 37.814 266.281 42.413C266.281 47.012 262.542 50.8445 258.054 50.8445H208.195C203.708 50.8445 199.968 47.012 199.968 42.413C199.719 37.814 203.458 33.9815 208.195 33.9815ZM233.125 493.881C219.413 493.881 208.195 482.384 208.195 468.331C208.195 454.279 219.413 442.782 233.125 442.782C246.836 442.782 258.054 454.279 258.054 468.331C258.054 482.384 246.836 493.881 233.125 493.881ZM349.297 425.663H116.703V85.0815H349.297V425.663Z" fill="#1E293B"/>
<rect y="148" width="222" height="216" fill="#F8FAFC"/>
<path d="M193.202 207.724L180.641 219.623C175.718 224.272 169.042 226.884 162.08 226.884C155.118 226.884 148.442 224.272 143.519 219.623C138.596 214.973 135.831 208.668 135.831 202.093C135.831 195.518 138.596 189.212 143.519 184.563L156.118 172.664C151.673 171.569 147.1 171.01 142.506 171C134.096 170.999 125.809 172.906 118.341 176.56C110.874 180.215 104.447 185.511 99.5989 192.002C94.7512 198.493 91.6258 205.989 90.4858 213.858C89.3457 221.728 90.2245 229.741 93.0479 237.223L23.791 292.61C18.1622 297.926 15 305.136 15 312.654C15 316.376 15.7763 320.062 17.2847 323.501C18.7931 326.94 21.0039 330.065 23.791 332.698C26.5781 335.33 29.8868 337.418 33.5283 338.842C37.1698 340.267 41.0727 341 45.0143 341C52.9746 341 60.6088 338.014 66.2376 332.698L124.883 267.289C133.904 270.325 143.632 270.973 153.014 269.162C162.397 267.351 171.076 263.151 178.113 257.016C185.149 250.881 190.275 243.045 192.935 234.357C195.594 225.668 195.687 216.458 193.202 207.724Z" stroke="#EB0000" stroke-width="10"/>
</svg>
