<svg width="80" height="24" viewBox="0 0 80 24" fill="none" xmlns="http://www.w3.org/2000/svg">
<g id="triangles-left" clip-path="url(#clip0_9_17)">
<g id="darkGroup">
<path id="left-dark1" opacity="0.7" d="M56.788 13.35C55.6597 12.8037 55.6597 11.1963 56.788 10.65L75.0963 1.78457C76.0924 1.30222 77.25 2.02785 77.25 3.13462L77.25 20.8654C77.25 21.9721 76.0924 22.6978 75.0963 22.2154L56.788 13.35Z" fill="#EB0000"/>
<path id="left-dark2" opacity="0.7" d="M42.788 13.35C41.6597 12.8037 41.6597 11.1963 42.788 10.65L61.0963 1.78457C62.0924 1.30222 63.25 2.02785 63.25 3.13462L63.25 20.8654C63.25 21.9721 62.0924 22.6978 61.0963 22.2154L42.788 13.35Z" fill="#EB0000"/>
</g>
<g id="lightGroup">
<path id="left-light1" opacity="0.7" d="M42.788 13.35C41.6597 12.8037 41.6597 11.1963 42.788 10.65L61.0963 1.78457C62.0924 1.30222 63.25 2.02785 63.25 3.13462L63.25 20.8654C63.25 21.9721 62.0924 22.6978 61.0963 22.2154L42.788 13.35Z" fill="#EF3333"/>
</g>
</g>
<defs>
<clipPath id="clip0_9_17">
<rect width="80" height="24" fill="white"/>
</clipPath>
</defs>
</svg>
