<svg width="80" height="24" viewBox="0 0 80 24" fill="none" xmlns="http://www.w3.org/2000/svg">
<g id="triangles" clip-path="url(#clip0_6_11)">
<g id="darkGroup">
<path id="dark1" opacity="0.7" d="M23.212 10.65C24.3403 11.1963 24.3403 12.8037 23.212 13.35L4.90373 22.2154C3.90761 22.6978 2.75 21.9721 2.75 20.8654L2.75 3.13462C2.75 2.02785 3.90761 1.30222 4.90373 1.78457L23.212 10.65Z" fill="#EB0000"/>
<path id="dark2" opacity="0.7" d="M37.212 10.65C38.3403 11.1963 38.3403 12.8037 37.212 13.35L18.9037 22.2154C17.9076 22.6978 16.75 21.9721 16.75 20.8654L16.75 3.13462C16.75 2.02785 17.9076 1.30222 18.9037 1.78457L37.212 10.65Z" fill="#EB0000"/>
</g>
<g id="lightGroup">
<path id="light1" opacity="0.7" d="M23.212 10.65C24.3403 11.1963 24.3403 12.8037 23.212 13.35L4.90373 22.2154C3.90761 22.6978 2.75 21.9721 2.75 20.8654L2.75 3.13462C2.75 2.02785 3.90761 1.30222 4.90373 1.78457L23.212 10.65Z" fill="#EF3333"/>
</g>
</g>
<defs>
<clipPath id="clip0_6_11">
<rect width="80" height="24" fill="white"/>
</clipPath>
</defs>
</svg>
