<svg width="65" height="87" viewBox="0 0 65 87" fill="none" xmlns="http://www.w3.org/2000/svg">
<path d="M32.4505 34.1218C35.8198 34.0991 39.1071 33.0793 41.8977 31.191C44.6882 29.3026 46.8572 26.6302 48.1309 23.5107C49.4047 20.3913 49.7263 16.9646 49.0551 13.6626C48.3839 10.3607 46.7501 7.33139 44.3595 4.9568C41.969 2.58221 38.9289 0.968632 35.6225 0.319554C32.3161 -0.329524 28.8916 0.0149621 25.7808 1.30957C22.67 2.60418 20.0121 4.79094 18.1424 7.59408C16.2727 10.3972 15.275 13.6912 15.2749 17.0607C15.2779 19.31 15.725 21.5366 16.5906 23.6126C17.4562 25.6887 18.7233 27.5734 20.3191 29.1586C21.9149 30.7437 23.808 31.9982 25.8899 32.8499C27.9717 33.7016 30.2012 34.1338 32.4505 34.1218ZM32.4505 9.13703C34.007 9.1596 35.5222 9.6415 36.8059 10.5222C38.0895 11.403 39.0843 12.6433 39.6655 14.0875C40.2466 15.5317 40.3882 17.1154 40.0724 18.6398C39.7566 20.1641 38.9975 21.5612 37.8904 22.6557C36.7833 23.7501 35.3776 24.4931 33.8497 24.7914C32.3218 25.0896 30.7398 24.9299 29.3024 24.3322C27.865 23.7345 26.6362 22.7254 25.7703 21.4317C24.9043 20.1381 24.4399 18.6174 24.4352 17.0607C24.4381 16.0143 24.6483 14.9789 25.0536 14.0142C25.4589 13.0495 26.0512 12.1746 26.7964 11.44C27.5416 10.7055 28.4249 10.1258 29.3954 9.73443C30.3658 9.34309 31.4041 9.14783 32.4505 9.15993V9.13703ZM32.4505 37.7172C28.1821 37.7202 23.9563 38.5646 20.0146 40.2022C16.0729 41.8398 12.4928 44.2384 9.47886 47.2608C6.46497 50.2832 4.07648 53.8701 2.45002 57.8164C0.823564 61.7627 -0.00895864 65.9909 7.26988e-05 70.2592C7.26988e-05 73.4882 1.51152 79.4195 11.7024 83.221C18.3949 85.4106 25.4106 86.4482 32.4505 86.2897C47.4275 86.2897 64.9008 82.076 64.9008 70.2592C64.9099 65.9909 64.0773 61.7627 62.4509 57.8164C60.8244 53.8701 58.4359 50.2832 55.422 47.2608C52.4081 44.2384 48.828 41.8398 44.8863 40.2022C40.9446 38.5646 36.7188 37.7202 32.4505 37.7172ZM32.4505 77.1294C18.023 77.1294 9.16038 73.076 9.16038 70.2592C9.06256 67.1407 9.59229 64.0344 10.7181 61.1247C11.844 58.2149 13.543 55.5611 15.7143 53.3206C17.8855 51.0801 20.4848 49.2988 23.3579 48.0822C26.2309 46.8657 29.319 46.2389 32.439 46.2389C35.559 46.2389 38.6471 46.8657 41.5201 48.0822C44.3932 49.2988 46.9925 51.0801 49.1637 53.3206C51.335 55.5611 53.034 58.2149 54.1599 61.1247C55.2857 64.0344 55.8154 67.1407 55.7176 70.2592C55.7405 73.076 46.8779 77.1294 32.4505 77.1294Z" fill="#334155"/>
</svg>
